#VRML V2.0 utf8
# 3D model generated by easyeda2kicad.py (https://github.com/uPesy/easyeda2kicad.py)

Shape{
    appearance Appearance {
        material  Material 	{
            diffuseColor 0.25098039215686274 0.25098039215686274 0.25098039215686274
            specularColor 0.12549019607843137 0.12549019607843137 0.12549019607843137
            ambientIntensity 0.251
            transparency 0.0
            shininess 0.5
        }
    }
    geometry IndexedFaceSet {
        ccw TRUE
        solid FALSE
        coord DEF co Coordinate {
            point [
                -0.3099 0.4886 0.3622, -0.3099 0.4557 0.3622, -0.2951 0.4557 0.3622, -0.217 0.4192 0.3622, -0.2276 0.3924 0.3622, -0.2145 0.3924 0.3622, -0.2513 0.3926 0.3622, -0.2529 0.3924 0.3622, -0.2436 0.3924 0.3622, -0.28 0.4885 0.3622, -0.2772 0.4889 0.3622, -0.2919 0.4889 0.3622, -0.2705 0.4514 0.3622, -0.2728 0.4512 0.3622, -0.2606 0.4512 0.3622, -0.3147 0.3927 0.3622, -0.3147 0.4248 0.3622, -0.3215 0.4248 0.3622, -0.4408 0.4234 0.3622, -0.4362 0.4192 0.3622, -0.4255 0.4248 0.3622, -0.3971 0.4927 0.3622, -0.3914 0.4889 0.3622, -0.3215 0.4889 0.3622, -0.3853 0.4848 0.3622, -0.3767 0.4749 0.3622, -0.3711 0.464 0.3622, -0.3696 0.4635 0.3622, -0.4464 0.4922 0.3622, -0.4343 0.4969 0.3622, -0.5008 0.5906 0.3622, -0.4212 0.4985 0.3622, -0.3215 0.5906 0.3622, -0.4103 0.4974 0.3622, -0.5066 0.4572 0.3622, -0.5008 0.4645 0.3622, -0.5008 0.4889 0.3622, -0.5008 0.4645 0.3622, -0.4985 0.4667 0.3622, -0.4896 0.4726 0.3622, -0.4798 0.4761 0.3622, -0.4705 0.4772 0.3622, -0.4518 0.4889 0.3622, -0.4528 0.4882 0.3622, -0.459 0.4829 0.3622, -0.4674 0.477 0.3622, -0.4644 0.4766 0.3622, -0.5131 0.4375 0.3622, -0.511 0.4479 0.3622, -0.5906 0.4512 0.3622, -0.5095 0.4512 0.3622, -0.5906 0.4889 0.3622, -0.5132 0.4345 0.3622, -0.5906 0.4248 0.3622, -0.5121 0.4252 0.3622, -0.5906 0.3924 0.3622, -0.5086 0.4153 0.3622, -0.512 0.4248 0.3622, -0.5008 0.4046 0.3622, -0.5021 0.4057 0.3622, -0.503 0.4068 0.3622, -0.4855 0.3945 0.3622, -0.4949 0.3994 0.3622, -0.5008 0.3924 0.3622, -0.481 0.3931 0.3622, -0.4693 0.3787 0.3622, -0.4745 0.3826 0.3622, -0.5008 0.3777 0.3622, -0.4784 0.3874 0.3622, -0.4807 0.3924 0.3622, -0.3215 -0.5906 0.3622, -0.3955 -0.4778 0.3622, -0.5008 -0.5906 0.3622, -0.4153 -0.4785 0.3622, -0.4347 -0.4744 0.3622, -0.3379 -0.4368 0.3622, -0.3494 -0.4529 0.3622, -0.4525 -0.4656 0.3622, -0.4676 -0.4527 0.3622, -0.4791 -0.4364 0.3622, -0.3595 -0.4622 0.3622, -0.3763 -0.4721 0.3622, -0.4023 -0.3189 0.3622, -0.3829 -0.3228 0.3622, -0.3215 0.3777 0.3622, -0.365 -0.3314 0.3622, -0.3518 -0.3421 0.3622, -0.3284 -0.3945 0.3622, -0.3283 -0.3987 0.3622, -0.3307 -0.4183 0.3622, -0.4788 -0.3606 0.3622, -0.4672 -0.3444 0.3622, -0.3396 -0.3577 0.3622, -0.3316 -0.3759 0.3622, -0.4862 -0.4179 0.3622, -0.4885 -0.3987 0.3622, -0.486 -0.3791 0.3622, -0.4578 -0.3357 0.3622, -0.4408 -0.3255 0.3622, -0.4219 -0.3198 0.3622, -0.4451 0.3777 0.3622, -0.4496 0.3759 0.3622, -0.456 0.3752 0.3622, -0.457 0.3752 0.3622, -0.4632 0.3762 0.3622, -0.4669 0.3777 0.3622, -0.4313 0.3924 0.3622, -0.4313 0.3923 0.3622, -0.4344 0.3864 0.3622, -0.4385 0.3818 0.3622, -0.4437 0.3782 0.3622, -0.3463 0.4197 0.3622, -0.3497 0.4114 0.3622, -0.3215 0.3924 0.3622, -0.3548 0.4044 0.3622, -0.3622 0.3982 0.3622, -0.3957 0.4087 0.3622, -0.3927 0.4237 0.3622, -0.3975 0.408 0.3622, -0.3992 0.4068 0.3622, -0.3938 0.4089 0.3622, -0.3935 0.4089 0.3622, -0.3927 0.4087 0.3622, -0.3956 0.3928 0.3622, -0.3974 0.3934 0.3622, -0.3991 0.3946 0.3622, -0.3999 0.3954 0.3622, -0.3703 0.3943 0.3622, -0.3788 0.3926 0.3622, -0.3943 0.3926 0.3622, -0.4019 0.4007 0.3622, -0.4019 0.4015 0.3622, -0.4296 0.4041 0.3622, -0.4015 0.4035 0.3622, -0.4005 0.4053 0.3622, -0.3667 0.4153 0.3622, -0.3638 0.4194 0.3622, -0.401 0.397 0.3622, -0.4017 0.3988 0.3622, -0.4298 0.3988 0.3622, -0.4296 0.4015 0.3622, -0.3922 0.4086 0.3622, -0.3803 0.4086 0.3622, -0.3756 0.4095 0.3622, -0.371 0.4117 0.3622, -0.3671 0.4149 0.3622, -0.4528 0.4279 0.3622, -0.4464 0.4264 0.3622, -0.3843 0.4512 0.3622, -0.456 0.4281 0.3622, -0.362 0.4241 0.3622, -0.3619 0.4248 0.3622, -0.3934 0.4248 0.3622, -0.3614 0.4292 0.3622, -0.3615 0.4315 0.3622, -0.4623 0.4274 0.3622, -0.4908 0.4512 0.3622, -0.4681 0.4251 0.3622, -0.4935 0.4472 0.3622, -0.4958 0.4414 0.3622, -0.4944 0.4248 0.3622, -0.4686 0.4248 0.3622, -0.4963 0.431 0.3622, -0.4966 0.435 0.3622, -0.3682 0.4445 0.3622, -0.3723 0.4474 0.3622, -0.3627 0.4365 0.3622, -0.3652 0.4411 0.3622, -0.384 0.4497 0.3622, -0.4009 0.4376 0.3622, -0.3819 0.4497 0.3622, -0.3769 0.4491 0.3622, -0.4434 0.4248 0.3622, -0.4944 0.4245 0.3622, -0.4778 0.4164 0.3622, -0.4735 0.4214 0.3622, -0.4912 0.4191 0.3622, -0.4865 0.4143 0.3622, -0.4807 0.4107 0.3622, -0.3948 0.4719 0.3622, -0.3966 0.4735 0.3622, -0.4562 0.4574 0.3622, -0.3891 0.4646 0.3622, -0.4582 0.4584 0.3622, -0.3853 0.4559 0.3622, -0.4041 0.4786 0.3622, -0.4124 0.4817 0.3622, -0.4525 0.4653 0.3622, -0.4209 0.4827 0.3622, -0.4641 0.4606 0.3622, -0.4702 0.4613 0.3622, -0.4729 0.4612 0.3622, -0.4307 0.4814 0.3622, -0.4393 0.4779 0.3622, -0.4466 0.4725 0.3622, -0.4794 0.4597 0.3622, -0.4853 0.4566 0.3622, -0.4899 0.4525 0.3622, -0.3618 0.4595 0.3622, -0.3547 0.4534 0.3622, -0.3215 0.4512 0.3622, -0.3531 0.4512 0.3622, -0.3493 0.4459 0.3622, -0.3462 0.4378 0.3622, -0.345 0.4295 0.3622, -0.345 0.4284 0.3622, -0.3456 0.4248 0.3622, -0.1285 0.4028 0.3622, -0.144 0.4028 0.3622, -0.1475 0.3927 0.3622, -0.1569 0.4204 0.3622, -0.1555 0.4168 0.3622, -0.1406 0.4248 0.3622, -0.1592 0.4236 0.3622, -0.1248 0.3927 0.3622, -0.1886 0.3924 0.3622, -0.1195 0.3927 0.3622, 0.5906 0.3924 0.3622, -0.1317 0.4248 0.3622, 0.5906 0.4248 0.3622, -0.1336 0.4297 0.3622, -0.1577 0.4012 0.3622, -0.1605 0.3979 0.3622, -0.1528 0.3927 0.3622, -0.1643 0.3951 0.3622, -0.1685 0.3935 0.3622, -0.1749 0.3927 0.3622, -0.1549 0.4117 0.3622, -0.155 0.4093 0.3622, -0.1559 0.405 0.3622, -0.1851 0.3927 0.3622, -0.1851 0.4248 0.3622, -0.1886 0.4248 0.3622, -0.1851 0.4297 0.3622, -0.1886 0.4512 0.3622, -0.1745 0.4297 0.3622, -0.1688 0.4291 0.3622, 0.5906 0.4512 0.3622, -0.1387 0.4297 0.3622, -0.1644 0.4275 0.3622, -0.1605 0.4248 0.3622, -0.1604 0.4248 0.3622, -0.3099 0.4248 0.3622, -0.3099 0.4136 0.3622, -0.2942 0.4248 0.3622, -0.2966 0.4136 0.3622, -0.2966 0.4094 0.3622, -0.3099 0.4094 0.3622, -0.3099 0.3969 0.3622, -0.2947 0.3969 0.3622, -0.2942 0.3924 0.3622, -0.2947 0.3927 0.3622, -0.3147 0.4297 0.3622, -0.3099 0.4255 0.3622, -0.2956 0.4255 0.3622, -0.2956 0.4297 0.3622, -0.2942 0.4512 0.3622, -0.175 0.4616 0.3622, -0.1886 0.4616 0.3622, -0.1712 0.4515 0.3622, -0.1659 0.4515 0.3622, -0.18 0.4886 0.3622, 0.5906 0.4889 0.3622, -0.1886 0.4889 0.3622, -0.1904 0.4616 0.3622, -0.194 0.4515 0.3622, -0.2003 0.4512 0.3622, -0.1992 0.4515 0.3622, -0.2003 0.4889 0.3622, -0.1886 0.4795 0.3622, -0.1851 0.4886 0.3622, -0.2436 0.4682 0.3622, -0.2536 0.4682 0.3622, -0.2436 0.4557 0.3622, -0.2536 0.4557 0.3622, -0.235 0.4889 0.3622, -0.2436 0.4889 0.3622, -0.2393 0.4886 0.3622, -0.2436 0.4886 0.3622, -0.2393 0.4843 0.3622, -0.2385 0.4557 0.3622, -0.235 0.4512 0.3622, -0.2385 0.4515 0.3622, -0.2436 0.4512 0.3622, -0.2404 0.4682 0.3622, -0.2404 0.4724 0.3622, -0.2436 0.4724 0.3622, -0.2436 0.4843 0.3622, -0.2536 0.4843 0.3622, -0.2536 0.4724 0.3622, -0.2584 0.4886 0.3622, -0.2606 0.4889 0.3622, -0.2584 0.4515 0.3622, -0.2658 0.4877 0.3622, -0.2697 0.4888 0.3622, -0.2707 0.4889 0.3622, -0.2436 0.4515 0.3622, -0.2658 0.4827 0.3622, -0.2665 0.4527 0.3622, -0.2737 0.4552 0.3622, -0.2695 0.456 0.3622, -0.2658 0.4576 0.3622, -0.2658 0.453 0.3622, -0.27 0.4843 0.3622, -0.2746 0.4849 0.3622, -0.2886 0.4696 0.3622, -0.2867 0.4615 0.3622, -0.2849 0.459 0.3622, -0.2842 0.4583 0.3622, -0.2818 0.4566 0.3622, -0.2791 0.4556 0.3622, -0.2754 0.4551 0.3622, -0.2847 0.4807 0.3622, -0.2867 0.4779 0.3622, -0.2822 0.4828 0.3622, -0.2792 0.4842 0.3622, -0.276 0.4848 0.3622, -0.2879 0.4747 0.3622, -0.2663 0.4829 0.3622, -0.2885 0.4682 0.3622, -0.2879 0.4645 0.3622, -0.2919 0.5906 0.3622, -0.2746 0.4892 0.3622, -0.2606 0.5906 0.3622, -0.2746 0.4892 0.3622, -0.2909 0.4802 0.3622, -0.2882 0.4837 0.3622, -0.2874 0.4846 0.3622, -0.2839 0.487 0.3622, -0.2942 0.4889 0.3622, -0.2927 0.4761 0.3622, -0.2919 0.4779 0.3622, -0.2919 0.4609 0.3622, -0.2928 0.4632 0.3622, -0.2936 0.4693 0.3622, -0.2935 0.4713 0.3622, -0.2824 0.4518 0.3622, -0.2859 0.4534 0.3622, -0.2919 0.4512 0.3622, -0.2888 0.4559 0.3622, -0.2913 0.4594 0.3622, -0.2761 0.4509 0.3622, -0.2606 0.4248 0.3622, -0.2793 0.4512 0.3622, -0.2919 0.4248 0.3622, -0.2783 0.451 0.3622, -0.2023 0.4638 0.3622, -0.2041 0.46 0.3622, -0.2145 0.4889 0.3622, -0.2145 0.4877 0.3622, -0.2108 0.4863 0.3622, -0.2145 0.4524 0.3622, -0.2145 0.4512 0.3622, -0.2107 0.4539 0.3622, -0.2069 0.4567 0.3622, -0.2069 0.4836 0.3622, -0.2056 0.4824 0.3622, -0.2033 0.4792 0.3622, -0.2019 0.4756 0.3622, -0.2013 0.4705 0.3622, -0.2014 0.4681 0.3622, -0.2209 0.4886 0.3622, -0.2152 0.4879 0.3622, -0.2149 0.4523 0.3622, -0.2213 0.4515 0.3622, -0.2315 0.4515 0.3622, -0.2315 0.4886 0.3622, -0.2776 0.393 0.3622, -0.2794 0.3924 0.3622, -0.2736 0.3927 0.3622, -0.2877 0.4128 0.3622, -0.2877 0.4173 0.3622, -0.276 0.3941 0.3622, -0.2847 0.3924 0.3622, -0.2864 0.3931 0.3622, -0.2919 0.3924 0.3622, -0.2894 0.396 0.3622, -0.29 0.3976 0.3622, -0.2612 0.4163 0.3622, -0.2774 0.4158 0.3622, -0.279 0.416 0.3622, -0.2815 0.4084 0.3622, -0.2884 0.4053 0.3622, -0.287 0.4065 0.3622, -0.285 0.4075 0.3622, -0.2845 0.4148 0.3622, -0.2816 0.4157 0.3622, -0.288 0.3941 0.3622, -0.2885 0.3946 0.3622, -0.2736 0.3968 0.3622, -0.2738 0.3968 0.3622, -0.2745 0.3957 0.3622, -0.2903 0.3998 0.3622, -0.2903 0.4003 0.3622, -0.29 0.4023 0.3622, -0.2893 0.404 0.3622, -0.2868 0.4178 0.3622, -0.2833 0.4192 0.3622, -0.2786 0.4198 0.3622, -0.2606 0.407 0.3622, -0.2627 0.3984 0.3622, -0.2606 0.407 0.3622, -0.261 0.3974 0.3622, -0.2606 0.3972 0.3622, -0.2614 0.4078 0.3622, -0.262 0.4088 0.3622, -0.269 0.4097 0.3622, -0.2625 0.4102 0.3622, -0.2695 0.4136 0.3622, -0.2627 0.412 0.3622, -0.2736 0.4095 0.3622, -0.2738 0.4115 0.3622, -0.2743 0.4132 0.3622, -0.2748 0.4142 0.3622, -0.2785 0.4198 0.3622, -0.2753 0.4194 0.3622, -0.2735 0.4187 0.3622, -0.272 0.4178 0.3622, -0.2755 0.4149 0.3622, -0.2763 0.4154 0.3622, -0.2625 0.4135 0.3622, -0.262 0.415 0.3622, -0.2702 0.4156 0.3622, -0.2712 0.4171 0.3622, -0.2795 0.3923 0.3622, -0.2606 0.3777 0.3622, -0.2919 0.3777 0.3622, -0.2819 0.3921 0.3622, -0.2846 0.3924 0.3622, -0.2627 0.3936 0.3622, -0.269 0.3927 0.3622, -0.2606 0.3929 0.3622, -0.2606 0.3924 0.3622, -0.2595 0.3925 0.3622, -0.2585 0.3924 0.3622, -0.2555 0.3921 0.3622, -0.2436 0.4248 0.3622, -0.2461 0.4186 0.3622, -0.2461 0.4141 0.3622, -0.2464 0.4043 0.3622, -0.2455 0.403 0.3622, -0.2606 0.4169 0.3622, -0.2597 0.4177 0.3622, -0.2586 0.4184 0.3622, -0.245 0.4016 0.3622, -0.2448 0.3999 0.3622, -0.2451 0.398 0.3622, -0.2456 0.3966 0.3622, -0.2465 0.3953 0.3622, -0.2561 0.4193 0.3622, -0.2524 0.4198 0.3622, -0.2491 0.4195 0.3622, -0.2478 0.3942 0.3622, -0.2489 0.3935 0.3622, -0.2528 0.416 0.3622, -0.2542 0.4159 0.3622, -0.2579 0.4124 0.3622, -0.2554 0.4156 0.3622, -0.2565 0.415 0.3622, -0.2579 0.4118 0.3622, -0.2577 0.4111 0.3622, -0.2573 0.4105 0.3622, -0.2569 0.41 0.3622, -0.2552 0.4089 0.3622, -0.2496 0.4156 0.3622, -0.2524 0.4077 0.3622, -0.247 0.4146 0.3622, -0.2506 0.407 0.3622, -0.2475 0.4052 0.3622, -0.2572 0.4144 0.3622, -0.2576 0.4138 0.3622, -0.2578 0.4132 0.3622, -0.2581 0.3962 0.3622, -0.2557 0.4043 0.3622, -0.2584 0.4056 0.3622, -0.2551 0.3958 0.3622, -0.2549 0.3958 0.3622, -0.2526 0.403 0.3622, -0.2525 0.3961 0.3622, -0.2496 0.3994 0.3622, -0.2496 0.4 0.3622, -0.2513 0.3966 0.3622, -0.2509 0.3968 0.3622, -0.2503 0.3973 0.3622, -0.2499 0.3979 0.3622, -0.2497 0.3985 0.3622, -0.2499 0.4007 0.3622, -0.2502 0.4013 0.3622, -0.2508 0.4019 0.3622, -0.2303 0.3993 0.3622, -0.2297 0.3971 0.3622, -0.2296 0.3971 0.3622, -0.2145 0.4248 0.3622, -0.235 0.4248 0.3622, -0.2218 0.4192 0.3622, -0.235 0.4127 0.3622, -0.229 0.3992 0.3622, -0.2294 0.398 0.3622, -0.235 0.3924 0.3622, -0.235 0.4002 0.3622, -0.2424 0.4192 0.3622, -0.2372 0.4192 0.3622, -0.232 0.3927 0.3622, -0.2322 0.3924 0.3622, -0.2341 0.3879 0.3622, -0.2436 0.3777 0.3622, -0.2415 0.3806 0.3622, -0.2415 0.3847 0.3622, -0.2405 0.3844 0.3622, -0.2388 0.3842 0.3622, -0.2379 0.3843 0.3622, -0.2369 0.3846 0.3622, -0.236 0.3851 0.3622, -0.2351 0.3861 0.3622, -0.235 0.3863 0.3622, -0.235 0.3811 0.3622, -0.2365 0.3805 0.3622, -0.235 0.3777 0.3622, -0.2385 0.3802 0.3622, -0.2395 0.3802 0.3622, -0.2145 0.3777 0.3622, -0.2331 0.3823 0.3622, -0.2346 0.3812 0.3622, -0.229 0.3887 0.3622, -0.2311 0.3846 0.3622, -0.2072 0.4094 0.3622, -0.2072 0.3969 0.3622, -0.2003 0.3969 0.3622, -0.1921 0.3969 0.3622, -0.1921 0.3927 0.3622, -0.2003 0.3924 0.3622, -0.194 0.4094 0.3622, -0.2003 0.4094 0.3622, -0.2072 0.4248 0.3622, -0.2072 0.4136 0.3622, -0.2003 0.4136 0.3622, -0.2072 0.4255 0.3622, -0.2003 0.4248 0.3622, -0.194 0.4136 0.3622, -0.212 0.3927 0.3622, -0.212 0.4248 0.3622, -0.212 0.4297 0.3622, -0.2003 0.3927 0.3622, -0.2436 0.5906 0.3622, -0.235 0.5906 0.3622, -0.2145 0.5906 0.3622, -0.2003 0.5906 0.3622, -0.1886 0.5906 0.3622, 0.5906 0.5906 0.3622, -0.2942 0.5906 0.3622, -0.5906 0.5906 0.3622, -0.3147 0.4515 0.3622, -0.3147 0.4886 0.3622, -0.2951 0.4515 0.3622, -0.2003 0.4297 0.3622, -0.1929 0.4297 0.3622, -0.1929 0.4255 0.3622, -0.2003 0.4255 0.3622, -0.2003 0.3777 0.3622, -0.1886 0.3777 0.3622, 0.5906 0.3777 0.3622, -0.2942 0.3777 0.3622, -0.2942 -0.5906 0.3622, -0.2919 -0.5906 0.3622, -0.2606 -0.5906 0.3622, -0.2436 -0.5906 0.3622, -0.235 -0.5906 0.3622, -0.2145 -0.5906 0.3622, -0.2003 -0.5906 0.3622, -0.1886 -0.5906 0.3622, 0.5906 -0.5906 0.3622, -0.5906 0.3777 0.3622, -0.5906 -0.5906 0.3622, 0.4331 0.0492 0.0079, 0.5906 0.0492 0.0079, 0.5906 -0.0492 0.0079, 0.4331 -0.3445 0.0079, 0.5906 -0.3445 0.0079, 0.5906 -0.5906 0.0079, 0.4331 -0.0492 0.0079, 0.4331 -0.1476 0.0079, 0.3346 -0.3346 0.0079, 0.5906 0.5906 0.0079, 0.5906 0.3445 0.0079, 0.4331 0.3445 0.0079, 0.3346 0.3346 0.0079, 0.4331 0.2461 0.0079, -0.5906 0.5906 0.0079, -0.3445 0.5906 0.0079, -0.3445 0.4331 0.0079, -0.5906 -0.0492 0.0079, -0.5906 0.0492 0.0079, -0.4331 -0.0492 0.0079, -0.4331 0.0492 0.0079, -0.5906 -0.2461 0.0079, -0.5906 -0.1476 0.0079, -0.4331 -0.2461 0.0079, -0.4331 -0.1476 0.0079, -0.3346 -0.2165 0.0079, -0.3346 0.3346 0.0079, -0.4331 0.1476 0.0079, -0.2461 0.4331 0.0079, -0.5906 0.3445 0.0079, -0.4331 0.3445 0.0079, -0.4331 0.2461 0.0079, -0.5906 0.2461 0.0079, -0.5906 0.1476 0.0079, -0.0492 0.4331 0.0079, -0.0492 0.5906 0.0079, 0.0492 0.5906 0.0079, 0.0492 -0.4331 0.0079, 0.0492 -0.5906 0.0079, -0.0492 -0.5906 0.0079, 0.0492 0.4331 0.0079, 0.1476 0.4331 0.0079, 0.5906 0.2461 0.0079, 0.5906 0.1476 0.0079, 0.4331 0.1476 0.0079, 0.2461 -0.5906 0.0079, 0.1476 -0.5906 0.0079, 0.2461 -0.4331 0.0079, 0.1476 -0.4331 0.0079, -0.1476 0.4331 0.0079, -0.1476 0.5906 0.0079, -0.2461 0.5906 0.0079, 0.5906 -0.1476 0.0079, 0.5906 -0.2461 0.0079, 0.4331 -0.2461 0.0079, 0.3445 -0.4331 0.0079, 0.3445 -0.5906 0.0079, -0.0492 -0.4331 0.0079, -0.1476 -0.4331 0.0079, -0.2165 -0.3346 0.0079, 0.3445 0.5906 0.0079, 0.3445 0.4331 0.0079, 0.2461 0.4331 0.0079, 0.2461 0.5906 0.0079, 0.1476 0.5906 0.0079, -0.3445 -0.4331 0.0079, -0.3445 -0.5906 0.0079, -0.4331 -0.3445 0.0079, -0.5906 -0.5906 0.0079, -0.5906 -0.3445 0.0079, -0.2461 -0.4331 0.0079, -0.2461 -0.5906 0.0079, -0.1476 -0.5906 0.0079, -0.5906 -0.4519 0.0688, -0.5906 -0.5087 0.0688, -0.5906 0.5087 0.0688, -0.5906 0.4519 0.0688, -0.5906 -0.5087 0.0353, -0.5906 -0.4519 0.0353, -0.5906 -0.3445 0.0787, -0.5906 0.2461 0.0787, -0.5906 0.3445 0.0787, -0.5906 0.4519 0.0353, -0.5906 0.5087 0.0353, -0.5906 0.1476 0.0787, -0.5906 0.0492 0.0787, -0.5906 -0.0492 0.0787, -0.5906 -0.1476 0.0787, -0.5906 -0.2461 0.0787, -0.1476 -0.5906 0.0787, -0.0492 -0.5906 0.0787, -0.2461 -0.5906 0.0787, 0.2461 -0.5906 0.0787, 0.3445 -0.5906 0.0787, 0.1476 -0.5906 0.0787, -0.5087 -0.5906 0.0688, -0.4519 -0.5906 0.0688, -0.3445 -0.5906 0.0787, -0.4519 -0.5906 0.0353, -0.5087 -0.5906 0.0353, 0.0492 -0.5906 0.0787, 0.5087 -0.5906 0.0353, 0.4519 -0.5906 0.0353, 0.5087 -0.5906 0.0688, 0.4519 -0.5906 0.0688, 0.5906 0.4519 0.0688, 0.5906 0.5087 0.0688, 0.5906 -0.4519 0.0353, 0.5906 -0.3445 0.0787, 0.5906 -0.4519 0.0688, 0.5906 0.5087 0.0353, 0.5906 0.4519 0.0353, 0.5906 0.3445 0.0787, 0.5906 -0.5087 0.0353, 0.5906 -0.5087 0.0688, 0.5906 -0.2461 0.0787, 0.5906 -0.1476 0.0787, 0.5906 -0.0492 0.0787, 0.5906 0.0492 0.0787, 0.5906 0.1476 0.0787, 0.5906 0.2461 0.0787, 0.5087 0.5906 0.0688, 0.4519 0.5906 0.0688, 0.2461 0.5906 0.0787, 0.3445 0.5906 0.0787, 0.4519 0.5906 0.0353, 0.5087 0.5906 0.0353, 0.1476 0.5906 0.0787, 0.0492 0.5906 0.0787, -0.3445 0.5906 0.0787, -0.4519 0.5906 0.0353, -0.0492 0.5906 0.0787, -0.1476 0.5906 0.0787, -0.4519 0.5906 0.0688, -0.5087 0.5906 0.0688, -0.5087 0.5906 0.0353, -0.2461 0.5906 0.0787
            ]
        }
        coordIndex [
            0,1,2,-1,3,4,5,-1,6,7,8,-1,9,10,11,-1,12,13,14,-1,15,16,17,-1,18,19,20,-1,21,22,23,-1,23,22,24,-1,24,25,23,-1,23,25,26,-1,23,26,27,-1,28,29,30,-1,30,29,31,-1,30,31,32,-1,32,31,33,-1,32,33,21,-1,34,35,36,-1,36,35,37,-1,36,37,38,-1,38,39,36,-1,36,39,40,-1,36,40,41,-1,28,30,42,-1,42,30,36,-1,42,36,43,-1,43,36,41,-1,43,41,44,-1,44,41,45,-1,44,45,46,-1,47,48,49,-1,49,48,50,-1,49,50,51,-1,47,49,52,-1,52,49,53,-1,52,53,54,-1,55,56,53,-1,53,56,57,-1,53,57,54,-1,58,59,55,-1,55,59,60,-1,55,60,56,-1,61,62,63,-1,61,63,64,-1,65,66,67,-1,67,66,68,-1,67,68,63,-1,63,68,69,-1,63,69,64,-1,70,71,72,-1,72,71,73,-1,72,73,74,-1,70,75,76,-1,74,77,72,-1,72,77,78,-1,72,78,79,-1,76,80,70,-1,70,80,81,-1,70,81,71,-1,82,83,84,-1,84,83,85,-1,84,85,86,-1,87,88,70,-1,70,88,89,-1,70,89,75,-1,67,90,91,-1,86,92,84,-1,84,92,93,-1,84,93,87,-1,79,94,72,-1,72,94,95,-1,72,95,67,-1,67,95,96,-1,67,96,90,-1,91,97,67,-1,67,97,98,-1,67,98,99,-1,84,100,82,-1,82,100,101,-1,82,101,99,-1,99,101,102,-1,102,103,99,-1,99,103,104,-1,99,104,67,-1,67,104,105,-1,67,105,65,-1,106,107,84,-1,84,107,108,-1,108,109,84,-1,84,109,110,-1,84,110,100,-1,111,112,113,-1,113,112,114,-1,113,114,115,-1,116,117,118,-1,118,117,119,-1,116,120,117,-1,117,120,121,-1,117,121,122,-1,123,124,106,-1,106,124,125,-1,106,125,126,-1,115,127,113,-1,113,127,128,-1,113,128,106,-1,106,128,129,-1,106,129,123,-1,130,131,132,-1,132,131,133,-1,132,133,117,-1,117,133,134,-1,117,134,119,-1,117,135,136,-1,126,137,106,-1,106,137,138,-1,106,138,139,-1,139,138,130,-1,139,130,140,-1,140,130,132,-1,122,141,117,-1,117,141,142,-1,117,142,143,-1,143,144,117,-1,117,144,145,-1,117,145,135,-1,146,147,148,-1,146,148,149,-1,136,150,117,-1,117,150,151,-1,117,151,152,-1,152,151,153,-1,152,153,154,-1,155,156,157,-1,157,156,158,-1,157,158,159,-1,160,161,162,-1,162,161,157,-1,162,157,163,-1,163,157,159,-1,152,164,165,-1,154,166,152,-1,152,166,167,-1,152,167,164,-1,168,169,170,-1,170,169,152,-1,170,152,171,-1,171,152,165,-1,168,148,169,-1,169,148,147,-1,169,147,20,-1,20,147,172,-1,20,172,18,-1,173,174,160,-1,160,174,175,-1,160,175,161,-1,173,176,174,-1,174,176,177,-1,174,177,178,-1,179,180,181,-1,179,181,182,-1,156,181,183,-1,155,149,156,-1,156,149,148,-1,156,148,181,-1,181,148,184,-1,181,184,182,-1,180,185,181,-1,181,185,186,-1,181,186,187,-1,187,186,188,-1,183,189,156,-1,156,189,190,-1,156,190,191,-1,192,193,188,-1,188,193,194,-1,188,194,187,-1,195,196,191,-1,191,196,197,-1,191,197,156,-1,27,198,23,-1,23,198,199,-1,23,199,200,-1,200,199,201,-1,200,201,202,-1,203,204,17,-1,17,204,205,-1,17,205,206,-1,207,208,209,-1,210,211,212,-1,210,212,213,-1,214,215,216,-1,216,215,217,-1,216,217,218,-1,218,217,219,-1,218,219,220,-1,221,222,223,-1,223,222,224,-1,223,224,225,-1,225,226,223,-1,223,226,215,-1,223,215,209,-1,209,215,214,-1,209,214,207,-1,211,227,212,-1,212,227,228,-1,212,228,223,-1,223,228,229,-1,223,229,221,-1,230,231,232,-1,232,231,233,-1,232,233,234,-1,234,233,235,-1,234,235,236,-1,219,237,220,-1,220,237,234,-1,220,234,238,-1,238,234,236,-1,236,239,238,-1,238,239,240,-1,238,240,212,-1,212,240,241,-1,212,241,213,-1,242,243,244,-1,244,243,245,-1,244,245,246,-1,247,248,246,-1,246,248,249,-1,246,249,244,-1,244,249,250,-1,249,251,250,-1,250,251,15,-1,250,15,113,-1,113,15,17,-1,113,17,111,-1,111,17,206,-1,202,203,200,-1,200,203,17,-1,200,17,252,-1,252,17,16,-1,253,242,254,-1,254,242,244,-1,254,244,255,-1,255,244,256,-1,255,256,252,-1,257,258,259,-1,259,258,234,-1,259,234,260,-1,260,234,237,-1,260,237,261,-1,261,237,262,-1,261,262,263,-1,258,264,234,-1,234,264,265,-1,234,265,266,-1,266,265,267,-1,266,267,268,-1,268,267,269,-1,268,269,263,-1,263,269,270,-1,263,270,261,-1,271,272,273,-1,273,272,274,-1,275,276,277,-1,277,276,278,-1,277,279,275,-1,275,279,280,-1,275,280,281,-1,281,280,282,-1,281,282,283,-1,271,273,284,-1,284,273,280,-1,284,280,285,-1,285,280,279,-1,285,279,286,-1,279,287,286,-1,286,287,288,-1,286,288,289,-1,278,276,290,-1,290,276,291,-1,290,291,292,-1,293,291,294,-1,294,291,295,-1,282,296,283,-1,283,296,292,-1,283,292,14,-1,14,292,291,-1,14,291,297,-1,297,291,293,-1,12,14,298,-1,299,300,297,-1,297,300,301,-1,297,301,14,-1,14,301,302,-1,14,302,298,-1,303,304,305,-1,306,307,297,-1,297,307,308,-1,297,308,309,-1,309,310,297,-1,297,310,311,-1,297,311,299,-1,312,313,314,-1,314,313,315,-1,304,316,305,-1,305,316,315,-1,305,315,317,-1,317,315,313,-1,303,305,318,-1,318,305,319,-1,318,319,297,-1,297,319,320,-1,297,320,306,-1,321,322,323,-1,323,322,324,-1,323,324,295,-1,11,325,326,-1,326,327,11,-1,11,327,328,-1,11,328,9,-1,329,330,11,-1,11,330,331,-1,11,331,325,-1,332,333,256,-1,256,333,334,-1,256,334,329,-1,329,334,335,-1,329,335,330,-1,336,337,338,-1,338,337,339,-1,338,339,340,-1,13,341,342,-1,336,338,343,-1,343,338,344,-1,343,344,345,-1,346,347,266,-1,348,349,268,-1,268,349,350,-1,351,352,353,-1,353,352,266,-1,353,266,354,-1,354,266,347,-1,350,355,268,-1,268,355,356,-1,268,356,357,-1,357,358,268,-1,268,358,359,-1,268,359,266,-1,266,359,360,-1,266,360,346,-1,275,361,348,-1,348,361,362,-1,348,362,349,-1,351,363,352,-1,352,363,364,-1,352,364,281,-1,281,364,365,-1,281,365,275,-1,275,365,366,-1,275,366,361,-1,367,368,369,-1,370,371,344,-1,367,369,372,-1,373,374,375,-1,375,376,377,-1,378,342,344,-1,344,342,341,-1,344,341,345,-1,379,380,381,-1,382,383,370,-1,370,383,384,-1,370,384,385,-1,385,384,381,-1,385,381,386,-1,386,381,380,-1,374,387,375,-1,375,387,388,-1,375,388,376,-1,389,390,369,-1,369,390,391,-1,369,391,372,-1,377,392,375,-1,375,392,393,-1,375,393,344,-1,344,393,394,-1,344,394,370,-1,370,394,395,-1,370,395,382,-1,371,396,344,-1,344,396,397,-1,344,397,398,-1,399,400,401,-1,401,400,402,-1,401,402,403,-1,404,405,406,-1,406,405,407,-1,406,407,408,-1,408,407,409,-1,410,411,381,-1,381,411,412,-1,381,412,413,-1,398,414,344,-1,344,414,415,-1,344,415,378,-1,378,415,416,-1,378,416,417,-1,413,418,381,-1,381,418,419,-1,381,419,379,-1,409,420,408,-1,408,420,421,-1,408,421,422,-1,422,421,378,-1,422,378,423,-1,423,378,417,-1,368,424,425,-1,425,424,426,-1,426,424,427,-1,426,427,428,-1,399,404,400,-1,400,404,406,-1,400,406,429,-1,429,406,430,-1,429,430,431,-1,431,430,432,-1,431,432,433,-1,433,432,434,-1,435,434,425,-1,425,434,432,-1,425,432,368,-1,368,432,430,-1,368,430,369,-1,436,437,438,-1,439,440,438,-1,378,441,342,-1,342,441,442,-1,342,442,443,-1,444,445,8,-1,445,446,8,-1,8,446,447,-1,8,447,448,-1,443,449,342,-1,342,449,450,-1,342,450,436,-1,436,450,451,-1,436,451,437,-1,448,452,8,-1,8,452,453,-1,8,453,6,-1,454,455,456,-1,456,455,457,-1,456,457,458,-1,456,459,454,-1,454,459,460,-1,454,460,461,-1,461,462,454,-1,454,462,463,-1,454,463,464,-1,464,463,465,-1,464,465,466,-1,466,465,467,-1,466,467,438,-1,438,467,468,-1,438,468,439,-1,469,470,458,-1,458,470,471,-1,458,471,456,-1,472,473,403,-1,403,473,474,-1,403,474,401,-1,472,475,473,-1,473,475,476,-1,473,476,477,-1,477,476,478,-1,477,479,480,-1,478,481,477,-1,477,481,482,-1,477,482,483,-1,483,484,477,-1,477,484,485,-1,477,485,479,-1,480,486,477,-1,477,486,487,-1,477,487,488,-1,489,490,491,-1,492,493,494,-1,494,493,495,-1,494,495,496,-1,496,495,489,-1,496,489,497,-1,497,489,491,-1,498,499,8,-1,8,499,500,-1,440,444,438,-1,438,444,8,-1,438,8,436,-1,436,8,500,-1,436,500,493,-1,493,500,501,-1,493,501,495,-1,502,499,503,-1,503,499,498,-1,503,498,504,-1,505,506,507,-1,435,425,7,-1,7,425,505,-1,7,505,8,-1,8,505,507,-1,8,507,498,-1,498,507,508,-1,498,508,509,-1,509,510,498,-1,498,510,511,-1,498,511,512,-1,512,513,498,-1,498,513,514,-1,498,514,504,-1,515,516,517,-1,517,516,518,-1,517,518,505,-1,505,518,519,-1,505,519,506,-1,520,521,517,-1,517,521,522,-1,517,522,515,-1,4,523,520,-1,520,523,524,-1,520,524,521,-1,525,526,527,-1,528,529,215,-1,215,529,530,-1,226,230,215,-1,215,230,232,-1,215,232,528,-1,528,232,531,-1,528,531,527,-1,527,531,532,-1,527,532,525,-1,533,534,535,-1,536,533,537,-1,537,533,535,-1,537,535,232,-1,232,535,538,-1,232,538,531,-1,539,540,492,-1,492,540,541,-1,529,542,530,-1,530,542,539,-1,530,539,5,-1,5,539,492,-1,5,492,3,-1,3,492,494,-1,295,291,323,-1,323,291,276,-1,323,276,543,-1,543,276,275,-1,543,275,544,-1,544,275,348,-1,544,348,545,-1,545,348,268,-1,545,268,546,-1,546,268,263,-1,546,263,547,-1,547,263,262,-1,547,262,548,-1,21,23,32,-1,32,23,329,-1,32,329,549,-1,549,329,11,-1,549,11,321,-1,321,11,10,-1,321,10,322,-1,30,550,36,-1,36,550,51,-1,36,51,34,-1,34,51,50,-1,252,256,200,-1,200,256,551,-1,200,551,23,-1,551,552,23,-1,23,552,0,-1,23,0,329,-1,329,0,2,-1,329,2,256,-1,256,2,553,-1,256,553,551,-1,13,342,14,-1,14,342,436,-1,14,436,283,-1,283,436,493,-1,283,493,281,-1,281,493,492,-1,281,492,352,-1,352,492,541,-1,352,541,266,-1,266,541,554,-1,266,554,234,-1,234,554,555,-1,234,555,232,-1,232,555,556,-1,232,556,537,-1,537,556,557,-1,537,557,536,-1,340,332,338,-1,338,332,256,-1,338,256,344,-1,344,256,244,-1,344,244,375,-1,375,244,250,-1,4,520,5,-1,5,520,558,-1,5,558,530,-1,530,558,559,-1,530,559,215,-1,215,559,560,-1,215,560,217,-1,106,84,113,-1,113,84,561,-1,113,561,250,-1,250,561,426,-1,250,426,375,-1,375,426,428,-1,375,428,373,-1,87,70,84,-1,84,70,562,-1,84,562,561,-1,561,562,563,-1,561,563,426,-1,426,563,564,-1,426,564,425,-1,425,564,565,-1,425,565,505,-1,505,565,566,-1,505,566,517,-1,517,566,567,-1,517,567,520,-1,520,567,568,-1,520,568,558,-1,558,568,569,-1,558,569,559,-1,559,569,570,-1,559,570,560,-1,62,58,63,-1,63,58,55,-1,63,55,67,-1,67,55,571,-1,67,571,72,-1,72,571,572,-1,573,574,575,-1,576,577,578,-1,579,580,581,-1,582,583,584,-1,582,584,585,-1,585,584,586,-1,585,586,581,-1,587,588,589,-1,590,591,592,-1,592,591,593,-1,594,595,596,-1,596,595,597,-1,596,597,598,-1,598,597,592,-1,598,592,599,-1,599,592,593,-1,599,593,600,-1,587,589,599,-1,599,589,601,-1,599,601,585,-1,602,587,603,-1,603,587,599,-1,603,599,604,-1,604,599,600,-1,604,600,605,-1,605,600,606,-1,607,608,609,-1,610,611,612,-1,613,614,585,-1,615,616,586,-1,586,616,617,-1,586,617,581,-1,581,617,573,-1,581,573,579,-1,579,573,575,-1,618,619,620,-1,620,619,621,-1,609,613,607,-1,607,613,585,-1,607,585,622,-1,622,585,601,-1,622,601,623,-1,623,601,624,-1,625,626,580,-1,580,626,627,-1,580,627,581,-1,581,627,576,-1,581,576,628,-1,628,576,578,-1,628,578,629,-1,630,631,632,-1,632,631,598,-1,612,630,610,-1,610,630,632,-1,610,632,621,-1,621,632,581,-1,621,581,620,-1,620,581,628,-1,633,582,634,-1,634,582,585,-1,634,585,635,-1,635,585,614,-1,635,614,636,-1,636,614,637,-1,638,639,640,-1,640,639,641,-1,640,641,642,-1,640,596,638,-1,638,596,598,-1,638,598,643,-1,643,598,631,-1,643,631,644,-1,644,631,645,-1,646,647,572,-1,587,648,550,-1,550,648,649,-1,550,649,572,-1,572,647,641,-1,647,650,641,-1,641,650,651,-1,641,651,642,-1,642,651,652,-1,653,572,654,-1,654,572,649,-1,654,649,602,-1,602,649,655,-1,602,655,587,-1,587,655,656,-1,587,656,648,-1,605,606,653,-1,653,606,657,-1,653,657,572,-1,572,657,658,-1,591,590,658,-1,658,590,659,-1,658,659,572,-1,572,659,660,-1,651,646,652,-1,652,646,572,-1,652,572,661,-1,661,572,660,-1,661,660,594,-1,594,660,595,-1,572,662,570,-1,570,662,663,-1,664,644,645,-1,665,666,570,-1,667,619,618,-1,641,668,572,-1,572,668,669,-1,645,662,664,-1,664,662,572,-1,664,572,670,-1,670,572,669,-1,670,669,639,-1,639,669,671,-1,639,671,641,-1,641,671,672,-1,641,672,668,-1,618,665,667,-1,667,665,570,-1,667,570,673,-1,673,570,663,-1,673,663,611,-1,611,663,612,-1,578,674,675,-1,674,578,676,-1,676,578,570,-1,676,570,677,-1,677,570,666,-1,677,666,675,-1,675,666,629,-1,675,629,578,-1,678,679,548,-1,548,679,582,-1,578,577,680,-1,680,577,681,-1,680,681,682,-1,679,683,582,-1,582,683,684,-1,582,684,583,-1,583,684,685,-1,680,686,578,-1,578,686,687,-1,578,687,570,-1,570,687,682,-1,570,682,548,-1,548,682,681,-1,548,681,688,-1,626,625,688,-1,688,625,689,-1,688,689,548,-1,548,689,690,-1,575,574,690,-1,690,574,691,-1,690,691,548,-1,548,691,692,-1,684,678,685,-1,685,678,548,-1,685,548,693,-1,693,548,692,-1,693,692,615,-1,615,692,616,-1,582,694,548,-1,548,694,695,-1,696,548,697,-1,697,548,695,-1,697,695,633,-1,633,695,698,-1,633,698,582,-1,582,698,699,-1,582,699,694,-1,636,637,696,-1,696,637,700,-1,696,700,548,-1,548,700,701,-1,702,588,703,-1,703,588,587,-1,609,608,701,-1,701,608,704,-1,701,704,548,-1,548,704,705,-1,548,706,550,-1,550,706,707,-1,550,707,587,-1,587,707,708,-1,587,708,703,-1,703,706,702,-1,702,706,548,-1,702,548,709,-1,709,548,705,-1,709,705,624,-1,624,705,623,-1,
        ]
    }
}
Shape{
    appearance Appearance {
        material  Material 	{
            diffuseColor 0.7529411764705882 0.7529411764705882 0.7529411764705882
            specularColor 0.3764705882352941 0.3764705882352941 0.3764705882352941
            ambientIntensity 0.7529
            transparency 0.0
            shininess 0.5
        }
    }
    geometry IndexedFaceSet {
        ccw TRUE
        solid FALSE
        coord DEF co Coordinate {
            point [
                -0.3307 -0.4183 0.3583, -0.3283 -0.3987 0.3622, -0.3283 -0.3987 0.3583, -0.3284 -0.3945 0.3622, -0.3284 -0.3945 0.3583, -0.3316 -0.3759 0.3622, -0.3316 -0.3759 0.3583, -0.3396 -0.3577 0.3622, -0.3396 -0.3577 0.3583, -0.3518 -0.3421 0.3622, -0.3518 -0.3421 0.3583, -0.365 -0.3314 0.3622, -0.365 -0.3314 0.3583, -0.3829 -0.3228 0.3622, -0.3829 -0.3228 0.3583, -0.4023 -0.3189 0.3622, -0.4023 -0.3189 0.3583, -0.4219 -0.3198 0.3622, -0.4219 -0.3198 0.3583, -0.4408 -0.3255 0.3622, -0.4408 -0.3255 0.3583, -0.4578 -0.3357 0.3622, -0.4578 -0.3357 0.3583, -0.4672 -0.3444 0.3622, -0.4672 -0.3444 0.3583, -0.4788 -0.3606 0.3622, -0.4788 -0.3606 0.3583, -0.486 -0.3791 0.3622, -0.486 -0.3791 0.3583, -0.4885 -0.3987 0.3622, -0.4885 -0.3987 0.3583, -0.4862 -0.4179 0.3622, -0.4862 -0.4179 0.3583, -0.4791 -0.4364 0.3622, -0.4791 -0.4364 0.3583, -0.4676 -0.4527 0.3622, -0.4676 -0.4527 0.3583, -0.4525 -0.4656 0.3622, -0.4525 -0.4656 0.3583, -0.4347 -0.4744 0.3622, -0.4347 -0.4744 0.3583, -0.4153 -0.4785 0.3622, -0.4153 -0.4785 0.3583, -0.3955 -0.4778 0.3622, -0.3955 -0.4778 0.3583, -0.3763 -0.4721 0.3622, -0.3763 -0.4721 0.3583, -0.3595 -0.4622 0.3622, -0.3595 -0.4622 0.3583, -0.3494 -0.4529 0.3622, -0.3494 -0.4529 0.3583, -0.3379 -0.4368 0.3622, -0.3379 -0.4368 0.3583, -0.3307 -0.4183 0.3622, 0.1476 0.5945 0.0787, 0.0492 0.5945 0.0787, 0.1476 0.5906 0.0787, 0.0492 0.5906 0.0787, 0.0492 0.5906 0.0079, 0.0492 0.5945 0.0, 0.0492 0.4331 0.0079, 0.0492 0.4331 0.0, 0.1476 0.4331 0.0, 0.1476 0.4331 0.0079, 0.1476 0.5906 0.0079, 0.1476 0.5945 0.0, 0.3445 0.5945 0.0787, 0.2461 0.5945 0.0787, 0.3445 0.5906 0.0787, 0.2461 0.5906 0.0787, 0.2461 0.5906 0.0079, 0.2461 0.5945 0.0, 0.2461 0.4331 0.0079, 0.2461 0.4331 0.0, 0.3445 0.4331 0.0, 0.3445 0.4331 0.0079, 0.3445 0.5906 0.0079, 0.3445 0.5945 0.0, -0.0492 0.5945 0.0787, -0.1476 0.5945 0.0787, -0.0492 0.5906 0.0787, -0.1476 0.5906 0.0787, -0.1476 0.5906 0.0079, -0.1476 0.5945 0.0, -0.1476 0.4331 0.0079, -0.1476 0.4331 0.0, -0.0492 0.4331 0.0, -0.0492 0.4331 0.0079, -0.0492 0.5906 0.0079, -0.0492 0.5945 0.0, -0.2461 0.5945 0.0787, -0.3445 0.5945 0.0787, -0.2461 0.5906 0.0787, -0.3445 0.5906 0.0787, -0.3445 0.5906 0.0079, -0.3445 0.5945 0.0, -0.3445 0.4331 0.0079, -0.3445 0.4331 0.0, -0.2461 0.4331 0.0, -0.2461 0.4331 0.0079, -0.2461 0.5906 0.0079, -0.2461 0.5945 0.0, -0.4519 0.5945 0.0353, -0.4519 0.5945 0.0688, -0.4519 0.5906 0.0353, -0.4519 0.5906 0.0688, -0.5087 0.5945 0.0353, -0.5087 0.5906 0.0353, -0.5087 0.5945 0.0688, -0.5087 0.5906 0.0688, 0.5087 0.5945 0.0353, 0.5087 0.5945 0.0688, 0.5087 0.5906 0.0353, 0.5087 0.5906 0.0688, 0.4519 0.5945 0.0353, 0.4519 0.5906 0.0353, 0.4519 0.5945 0.0688, 0.4519 0.5906 0.0688, 0.5945 -0.1476 0.0787, 0.5945 -0.0492 0.0787, 0.5906 -0.1476 0.0787, 0.5906 -0.0492 0.0787, 0.5906 -0.0492 0.0079, 0.5945 -0.0492 0.0, 0.4331 -0.0492 0.0079, 0.4331 -0.0492 0.0, 0.4331 -0.1476 0.0, 0.4331 -0.1476 0.0079, 0.5906 -0.1476 0.0079, 0.5945 -0.1476 0.0, 0.5945 -0.3445 0.0787, 0.5945 -0.2461 0.0787, 0.5906 -0.3445 0.0787, 0.5906 -0.2461 0.0787, 0.5906 -0.2461 0.0079, 0.5945 -0.2461 0.0, 0.4331 -0.2461 0.0079, 0.4331 -0.2461 0.0, 0.4331 -0.3445 0.0, 0.4331 -0.3445 0.0079, 0.5906 -0.3445 0.0079, 0.5945 -0.3445 0.0, 0.5945 0.0492 0.0787, 0.5945 0.1476 0.0787, 0.5906 0.0492 0.0787, 0.5906 0.1476 0.0787, 0.5906 0.1476 0.0079, 0.5945 0.1476 0.0, 0.4331 0.1476 0.0079, 0.4331 0.1476 0.0, 0.4331 0.0492 0.0, 0.4331 0.0492 0.0079, 0.5906 0.0492 0.0079, 0.5945 0.0492 0.0, 0.5945 0.2461 0.0787, 0.5945 0.3445 0.0787, 0.5906 0.2461 0.0787, 0.5906 0.3445 0.0787, 0.5906 0.3445 0.0079, 0.5945 0.3445 0.0, 0.4331 0.3445 0.0079, 0.4331 0.3445 0.0, 0.4331 0.2461 0.0, 0.4331 0.2461 0.0079, 0.5906 0.2461 0.0079, 0.5945 0.2461 0.0, -0.1476 -0.5945 0.0787, -0.0492 -0.5945 0.0787, -0.1476 -0.5906 0.0787, -0.0492 -0.5906 0.0787, -0.0492 -0.5906 0.0079, -0.0492 -0.5945 0.0, -0.0492 -0.4331 0.0079, -0.0492 -0.4331 0.0, -0.1476 -0.4331 0.0, -0.1476 -0.4331 0.0079, -0.1476 -0.5906 0.0079, -0.1476 -0.5945 0.0, -0.3445 -0.5945 0.0787, -0.2461 -0.5945 0.0787, -0.3445 -0.5906 0.0787, -0.2461 -0.5906 0.0787, -0.2461 -0.5906 0.0079, -0.2461 -0.5945 0.0, -0.2461 -0.4331 0.0079, -0.2461 -0.4331 0.0, -0.3445 -0.4331 0.0, -0.3445 -0.4331 0.0079, -0.3445 -0.5906 0.0079, -0.3445 -0.5945 0.0, 0.0492 -0.5945 0.0787, 0.1476 -0.5945 0.0787, 0.0492 -0.5906 0.0787, 0.1476 -0.5906 0.0787, 0.1476 -0.5906 0.0079, 0.1476 -0.5945 0.0, 0.1476 -0.4331 0.0079, 0.1476 -0.4331 0.0, 0.0492 -0.4331 0.0, 0.0492 -0.4331 0.0079, 0.0492 -0.5906 0.0079, 0.0492 -0.5945 0.0, 0.2461 -0.5945 0.0787, 0.3445 -0.5945 0.0787, 0.2461 -0.5906 0.0787, 0.3445 -0.5906 0.0787, 0.3445 -0.5906 0.0079, 0.3445 -0.5945 0.0, 0.3445 -0.4331 0.0079, 0.3445 -0.4331 0.0, 0.2461 -0.4331 0.0, 0.2461 -0.4331 0.0079, 0.2461 -0.5906 0.0079, 0.2461 -0.5945 0.0, -0.5945 0.1476 0.0787, -0.5945 0.0492 0.0787, -0.5906 0.1476 0.0787, -0.5906 0.0492 0.0787, -0.5906 0.0492 0.0079, -0.5945 0.0492 0.0, -0.4331 0.0492 0.0079, -0.4331 0.0492 0.0, -0.4331 0.1476 0.0, -0.4331 0.1476 0.0079, -0.5906 0.1476 0.0079, -0.5945 0.1476 0.0, -0.5945 0.3445 0.0787, -0.5945 0.2461 0.0787, -0.5906 0.3445 0.0787, -0.5906 0.2461 0.0787, -0.5906 0.2461 0.0079, -0.5945 0.2461 0.0, -0.4331 0.2461 0.0079, -0.4331 0.2461 0.0, -0.4331 0.3445 0.0, -0.4331 0.3445 0.0079, -0.5906 0.3445 0.0079, -0.5945 0.3445 0.0, -0.5945 -0.0492 0.0787, -0.5945 -0.1476 0.0787, -0.5906 -0.0492 0.0787, -0.5906 -0.1476 0.0787, -0.5906 -0.1476 0.0079, -0.5945 -0.1476 0.0, -0.4331 -0.1476 0.0079, -0.4331 -0.1476 0.0, -0.4331 -0.0492 0.0, -0.4331 -0.0492 0.0079, -0.5906 -0.0492 0.0079, -0.5945 -0.0492 0.0, -0.5945 -0.2461 0.0787, -0.5945 -0.3445 0.0787, -0.5906 -0.2461 0.0787, -0.5906 -0.3445 0.0787, -0.5906 -0.3445 0.0079, -0.5945 -0.3445 0.0, -0.4331 -0.3445 0.0079, -0.4331 -0.3445 0.0, -0.4331 -0.2461 0.0, -0.4331 -0.2461 0.0079, -0.5906 -0.2461 0.0079, -0.5945 -0.2461 0.0, 0.5945 0.4519 0.0353, 0.5945 0.4519 0.0688, 0.5906 0.4519 0.0353, 0.5906 0.4519 0.0688, 0.5945 0.5087 0.0353, 0.5906 0.5087 0.0353, 0.5945 0.5087 0.0688, 0.5906 0.5087 0.0688, 0.5945 -0.5087 0.0353, 0.5945 -0.5087 0.0688, 0.5906 -0.5087 0.0353, 0.5906 -0.5087 0.0688, 0.5945 -0.4519 0.0353, 0.5906 -0.4519 0.0353, 0.5945 -0.4519 0.0688, 0.5906 -0.4519 0.0688, 0.4519 -0.5945 0.0353, 0.4519 -0.5945 0.0688, 0.4519 -0.5906 0.0353, 0.4519 -0.5906 0.0688, 0.5087 -0.5945 0.0353, 0.5087 -0.5906 0.0353, 0.5087 -0.5945 0.0688, 0.5087 -0.5906 0.0688, -0.5087 -0.5945 0.0353, -0.5087 -0.5945 0.0688, -0.5087 -0.5906 0.0353, -0.5087 -0.5906 0.0688, -0.4519 -0.5945 0.0353, -0.4519 -0.5906 0.0353, -0.4519 -0.5945 0.0688, -0.4519 -0.5906 0.0688, -0.5945 -0.4519 0.0353, -0.5945 -0.4519 0.0688, -0.5906 -0.4519 0.0353, -0.5906 -0.4519 0.0688, -0.5945 -0.5087 0.0353, -0.5906 -0.5087 0.0353, -0.5945 -0.5087 0.0688, -0.5906 -0.5087 0.0688, -0.5945 0.5087 0.0353, -0.5945 0.5087 0.0688, -0.5906 0.5087 0.0353, -0.5906 0.5087 0.0688, -0.5945 0.4519 0.0353, -0.5906 0.4519 0.0353, -0.5945 0.4519 0.0688, -0.5906 0.4519 0.0688, 0.3346 -0.3346 0.0, 0.3346 0.3346 0.0, 0.3346 -0.3346 0.0079, 0.3346 0.3346 0.0079, -0.2165 -0.3346 0.0, -0.2165 -0.3346 0.0079, -0.3346 -0.2165 0.0, -0.3346 -0.2165 0.0079, -0.3346 0.3346 0.0, -0.3346 0.3346 0.0079
            ]
        }
        coordIndex [
            0,1,2,-1,2,1,3,-1,2,3,4,-1,4,3,5,-1,4,5,6,-1,6,5,7,-1,6,7,8,-1,8,7,9,-1,8,9,10,-1,10,9,11,-1,10,11,12,-1,12,11,13,-1,12,13,14,-1,14,13,15,-1,14,15,16,-1,16,15,17,-1,16,17,18,-1,18,17,19,-1,18,19,20,-1,20,19,21,-1,20,21,22,-1,22,21,23,-1,22,23,24,-1,24,23,25,-1,24,25,26,-1,26,25,27,-1,26,27,28,-1,28,27,29,-1,28,29,30,-1,30,29,31,-1,30,31,32,-1,32,31,33,-1,32,33,34,-1,34,33,35,-1,34,35,36,-1,36,35,37,-1,36,37,38,-1,38,37,39,-1,38,39,40,-1,40,39,41,-1,40,41,42,-1,42,41,43,-1,42,43,44,-1,44,43,45,-1,44,45,46,-1,46,45,47,-1,46,47,48,-1,48,47,49,-1,48,49,50,-1,50,49,51,-1,50,51,52,-1,52,51,53,-1,52,53,0,-1,0,53,1,-1,2,4,32,-1,44,46,32,-1,32,46,48,-1,32,48,50,-1,8,10,22,-1,22,10,12,-1,22,12,14,-1,14,16,22,-1,22,16,18,-1,22,18,20,-1,4,24,26,-1,50,52,32,-1,32,52,0,-1,32,0,2,-1,24,4,22,-1,22,4,6,-1,22,6,8,-1,26,28,4,-1,4,28,30,-1,4,30,32,-1,36,38,34,-1,34,38,40,-1,34,40,32,-1,32,40,42,-1,32,42,44,-1,54,55,56,-1,56,55,57,-1,57,55,58,-1,58,55,59,-1,58,59,60,-1,60,59,61,-1,61,62,60,-1,60,62,63,-1,63,62,64,-1,64,62,65,-1,64,65,56,-1,56,65,54,-1,59,55,65,-1,65,55,54,-1,65,62,59,-1,59,62,61,-1,66,67,68,-1,68,67,69,-1,69,67,70,-1,70,67,71,-1,70,71,72,-1,72,71,73,-1,73,74,72,-1,72,74,75,-1,75,74,76,-1,76,74,77,-1,76,77,68,-1,68,77,66,-1,71,67,77,-1,77,67,66,-1,77,74,71,-1,71,74,73,-1,78,79,80,-1,80,79,81,-1,81,79,82,-1,82,79,83,-1,82,83,84,-1,84,83,85,-1,85,86,84,-1,84,86,87,-1,87,86,88,-1,88,86,89,-1,88,89,80,-1,80,89,78,-1,83,79,89,-1,89,79,78,-1,89,86,83,-1,83,86,85,-1,90,91,92,-1,92,91,93,-1,93,91,94,-1,94,91,95,-1,94,95,96,-1,96,95,97,-1,97,98,96,-1,96,98,99,-1,99,98,100,-1,100,98,101,-1,100,101,92,-1,92,101,90,-1,95,91,101,-1,101,91,90,-1,101,98,95,-1,95,98,97,-1,102,103,104,-1,104,103,105,-1,106,102,107,-1,107,102,104,-1,108,106,109,-1,109,106,107,-1,103,108,105,-1,105,108,109,-1,106,108,102,-1,102,108,103,-1,110,111,112,-1,112,111,113,-1,114,110,115,-1,115,110,112,-1,116,114,117,-1,117,114,115,-1,111,116,113,-1,113,116,117,-1,114,116,110,-1,110,116,111,-1,118,119,120,-1,120,119,121,-1,121,119,122,-1,122,119,123,-1,122,123,124,-1,124,123,125,-1,125,126,124,-1,124,126,127,-1,127,126,128,-1,128,126,129,-1,128,129,120,-1,120,129,118,-1,123,119,129,-1,129,119,118,-1,129,126,123,-1,123,126,125,-1,130,131,132,-1,132,131,133,-1,133,131,134,-1,134,131,135,-1,134,135,136,-1,136,135,137,-1,137,138,136,-1,136,138,139,-1,139,138,140,-1,140,138,141,-1,140,141,132,-1,132,141,130,-1,135,131,141,-1,141,131,130,-1,141,138,135,-1,135,138,137,-1,142,143,144,-1,144,143,145,-1,145,143,146,-1,146,143,147,-1,146,147,148,-1,148,147,149,-1,149,150,148,-1,148,150,151,-1,151,150,152,-1,152,150,153,-1,152,153,144,-1,144,153,142,-1,147,143,153,-1,153,143,142,-1,153,150,147,-1,147,150,149,-1,154,155,156,-1,156,155,157,-1,157,155,158,-1,158,155,159,-1,158,159,160,-1,160,159,161,-1,161,162,160,-1,160,162,163,-1,163,162,164,-1,164,162,165,-1,164,165,156,-1,156,165,154,-1,159,155,165,-1,165,155,154,-1,165,162,159,-1,159,162,161,-1,166,167,168,-1,168,167,169,-1,169,167,170,-1,170,167,171,-1,170,171,172,-1,172,171,173,-1,173,174,172,-1,172,174,175,-1,175,174,176,-1,176,174,177,-1,176,177,168,-1,168,177,166,-1,171,167,177,-1,177,167,166,-1,177,174,171,-1,171,174,173,-1,178,179,180,-1,180,179,181,-1,181,179,182,-1,182,179,183,-1,182,183,184,-1,184,183,185,-1,185,186,184,-1,184,186,187,-1,187,186,188,-1,188,186,189,-1,188,189,180,-1,180,189,178,-1,183,179,189,-1,189,179,178,-1,189,186,183,-1,183,186,185,-1,190,191,192,-1,192,191,193,-1,193,191,194,-1,194,191,195,-1,194,195,196,-1,196,195,197,-1,197,198,196,-1,196,198,199,-1,199,198,200,-1,200,198,201,-1,200,201,192,-1,192,201,190,-1,195,191,201,-1,201,191,190,-1,201,198,195,-1,195,198,197,-1,202,203,204,-1,204,203,205,-1,205,203,206,-1,206,203,207,-1,206,207,208,-1,208,207,209,-1,209,210,208,-1,208,210,211,-1,211,210,212,-1,212,210,213,-1,212,213,204,-1,204,213,202,-1,207,203,213,-1,213,203,202,-1,213,210,207,-1,207,210,209,-1,214,215,216,-1,216,215,217,-1,217,215,218,-1,218,215,219,-1,218,219,220,-1,220,219,221,-1,221,222,220,-1,220,222,223,-1,223,222,224,-1,224,222,225,-1,224,225,216,-1,216,225,214,-1,219,215,225,-1,225,215,214,-1,225,222,219,-1,219,222,221,-1,226,227,228,-1,228,227,229,-1,229,227,230,-1,230,227,231,-1,230,231,232,-1,232,231,233,-1,233,234,232,-1,232,234,235,-1,235,234,236,-1,236,234,237,-1,236,237,228,-1,228,237,226,-1,231,227,237,-1,237,227,226,-1,237,234,231,-1,231,234,233,-1,238,239,240,-1,240,239,241,-1,241,239,242,-1,242,239,243,-1,242,243,244,-1,244,243,245,-1,245,246,244,-1,244,246,247,-1,247,246,248,-1,248,246,249,-1,248,249,240,-1,240,249,238,-1,243,239,249,-1,249,239,238,-1,249,246,243,-1,243,246,245,-1,250,251,252,-1,252,251,253,-1,253,251,254,-1,254,251,255,-1,254,255,256,-1,256,255,257,-1,257,258,256,-1,256,258,259,-1,259,258,260,-1,260,258,261,-1,260,261,252,-1,252,261,250,-1,255,251,261,-1,261,251,250,-1,261,258,255,-1,255,258,257,-1,262,263,264,-1,264,263,265,-1,266,262,267,-1,267,262,264,-1,268,266,269,-1,269,266,267,-1,263,268,265,-1,265,268,269,-1,266,268,262,-1,262,268,263,-1,270,271,272,-1,272,271,273,-1,274,270,275,-1,275,270,272,-1,276,274,277,-1,277,274,275,-1,271,276,273,-1,273,276,277,-1,274,276,270,-1,270,276,271,-1,278,279,280,-1,280,279,281,-1,282,278,283,-1,283,278,280,-1,284,282,285,-1,285,282,283,-1,279,284,281,-1,281,284,285,-1,282,284,278,-1,278,284,279,-1,286,287,288,-1,288,287,289,-1,290,286,291,-1,291,286,288,-1,292,290,293,-1,293,290,291,-1,287,292,289,-1,289,292,293,-1,290,292,286,-1,286,292,287,-1,294,295,296,-1,296,295,297,-1,298,294,299,-1,299,294,296,-1,300,298,301,-1,301,298,299,-1,295,300,297,-1,297,300,301,-1,298,300,294,-1,294,300,295,-1,302,303,304,-1,304,303,305,-1,306,302,307,-1,307,302,304,-1,308,306,309,-1,309,306,307,-1,303,308,305,-1,305,308,309,-1,306,308,302,-1,302,308,303,-1,310,311,312,-1,312,311,313,-1,314,310,315,-1,315,310,312,-1,316,314,317,-1,317,314,315,-1,318,316,319,-1,319,316,317,-1,311,318,313,-1,313,318,319,-1,316,318,314,-1,314,318,311,-1,314,311,310,-1,
        ]
    }
}
Shape{
    appearance Appearance {
        material  Material 	{
            diffuseColor 1.0 1.0 1.0
            specularColor 0.5019607843137255 0.5019607843137255 0.5019607843137255
            ambientIntensity 1.0
            transparency 0.0
            shininess 0.5
        }
    }
    geometry IndexedFaceSet {
        ccw TRUE
        solid FALSE
        coord DEF co Coordinate {
            point [
                -0.2951 0.4557 0.3661, -0.2951 0.4515 0.3661, -0.2951 0.4557 0.3622, -0.2951 0.4515 0.3622, -0.3099 0.4557 0.3661, -0.3099 0.4557 0.3622, -0.3099 0.4886 0.3661, -0.3099 0.4886 0.3622, -0.3147 0.4886 0.3661, -0.3147 0.4886 0.3622, -0.3147 0.4515 0.3661, -0.3147 0.4515 0.3622, -0.2761 0.4509 0.3661, -0.2761 0.4509 0.3622, -0.2705 0.4514 0.3661, -0.2728 0.4512 0.3622, -0.2705 0.4514 0.3622, -0.2665 0.4527 0.3622, -0.2665 0.4527 0.3661, -0.2658 0.453 0.3622, -0.2658 0.453 0.3661, -0.2658 0.4576 0.3661, -0.2658 0.4576 0.3622, -0.2695 0.456 0.3622, -0.2695 0.456 0.3661, -0.2737 0.4552 0.3622, -0.2737 0.4552 0.3661, -0.2754 0.4551 0.3622, -0.2754 0.4551 0.3661, -0.2791 0.4556 0.3622, -0.2791 0.4556 0.3661, -0.2818 0.4566 0.3622, -0.2818 0.4566 0.3661, -0.2842 0.4583 0.3622, -0.2842 0.4583 0.3661, -0.2849 0.459 0.3622, -0.2849 0.459 0.3661, -0.2867 0.4615 0.3622, -0.2867 0.4615 0.3661, -0.2879 0.4645 0.3622, -0.2879 0.4645 0.3661, -0.2885 0.4682 0.3622, -0.2885 0.4682 0.3661, -0.2886 0.4696 0.3622, -0.2886 0.4696 0.3661, -0.2879 0.4747 0.3622, -0.2879 0.4747 0.3661, -0.2867 0.4779 0.3622, -0.2867 0.4779 0.3661, -0.2847 0.4807 0.3622, -0.2847 0.4807 0.3661, -0.2822 0.4828 0.3622, -0.2822 0.4828 0.3661, -0.2792 0.4842 0.3622, -0.2792 0.4842 0.3661, -0.276 0.4848 0.3622, -0.276 0.4848 0.3661, -0.2746 0.4849 0.3622, -0.2746 0.4849 0.3661, -0.27 0.4843 0.3622, -0.27 0.4843 0.3661, -0.2663 0.4829 0.3622, -0.2663 0.4829 0.3661, -0.2658 0.4827 0.3622, -0.2658 0.4827 0.3661, -0.2658 0.4877 0.3661, -0.2658 0.4877 0.3622, -0.2746 0.4892 0.3622, -0.2746 0.4892 0.3661, -0.2746 0.4892 0.3661, -0.2697 0.4888 0.3622, -0.2697 0.4888 0.3661, -0.2707 0.4889 0.3622, -0.2746 0.4892 0.3622, -0.2772 0.4889 0.3622, -0.28 0.4885 0.3661, -0.28 0.4885 0.3622, -0.2839 0.487 0.3622, -0.2839 0.487 0.3661, -0.2874 0.4846 0.3622, -0.2874 0.4846 0.3661, -0.2882 0.4837 0.3622, -0.2882 0.4837 0.3661, -0.2909 0.4802 0.3622, -0.2909 0.4802 0.3661, -0.2919 0.4779 0.3622, -0.2927 0.4761 0.3661, -0.2927 0.4761 0.3622, -0.2935 0.4713 0.3622, -0.2935 0.4713 0.3661, -0.2936 0.4693 0.3622, -0.2936 0.4693 0.3661, -0.2888 0.4559 0.3622, -0.2888 0.4559 0.3661, -0.2913 0.4594 0.3661, -0.2928 0.4632 0.3622, -0.2928 0.4632 0.3661, -0.2919 0.4609 0.3622, -0.2913 0.4594 0.3622, -0.2783 0.451 0.3661, -0.2859 0.4534 0.3622, -0.2859 0.4534 0.3661, -0.2824 0.4518 0.3622, -0.2824 0.4518 0.3661, -0.2793 0.4512 0.3622, -0.2783 0.451 0.3622, -0.2385 0.4557 0.3661, -0.2385 0.4515 0.3661, -0.2385 0.4557 0.3622, -0.2385 0.4515 0.3622, -0.2536 0.4557 0.3622, -0.2536 0.4557 0.3661, -0.2436 0.4557 0.3622, -0.2536 0.4682 0.3661, -0.2536 0.4682 0.3622, -0.2404 0.4682 0.3661, -0.2436 0.4682 0.3622, -0.2404 0.4682 0.3622, -0.2404 0.4724 0.3661, -0.2404 0.4724 0.3622, -0.2536 0.4724 0.3622, -0.2536 0.4724 0.3661, -0.2436 0.4724 0.3622, -0.2536 0.4843 0.3661, -0.2536 0.4843 0.3622, -0.2393 0.4843 0.3661, -0.2436 0.4843 0.3622, -0.2393 0.4843 0.3622, -0.2393 0.4886 0.3661, -0.2393 0.4886 0.3622, -0.2584 0.4886 0.3622, -0.2584 0.4886 0.3661, -0.2436 0.4886 0.3622, -0.2584 0.4515 0.3661, -0.2584 0.4515 0.3622, -0.2436 0.4515 0.3622, -0.2084 0.4619 0.3661, -0.2103 0.4596 0.3661, -0.2069 0.4567 0.3661, -0.211 0.459 0.3661, -0.2107 0.4539 0.3661, -0.2134 0.4574 0.3661, -0.2149 0.4523 0.3661, -0.2166 0.4562 0.3661, -0.2213 0.4515 0.3661, -0.2213 0.4557 0.3661, -0.2315 0.4515 0.3661, -0.2267 0.4557 0.3661, -0.2315 0.4886 0.3661, -0.2267 0.4843 0.3661, -0.2209 0.4886 0.3661, -0.2211 0.4843 0.3661, -0.2152 0.4879 0.3661, -0.2163 0.4838 0.3661, -0.2108 0.4863 0.3661, -0.2131 0.4826 0.3661, -0.2069 0.4836 0.3661, -0.2104 0.4808 0.3661, -0.2056 0.4824 0.3661, -0.2094 0.4798 0.3661, -0.2033 0.4792 0.3661, -0.2079 0.4777 0.3661, -0.2019 0.4756 0.3661, -0.2069 0.4751 0.3661, -0.2013 0.4705 0.3661, -0.2063 0.4704 0.3661, -0.2014 0.4681 0.3661, -0.2065 0.468 0.3661, -0.2023 0.4638 0.3661, -0.2072 0.4646 0.3661, -0.2041 0.46 0.3661, -0.2213 0.4515 0.3622, -0.2315 0.4515 0.3622, -0.2069 0.4567 0.3622, -0.2149 0.4523 0.3622, -0.2145 0.4524 0.3622, -0.2107 0.4539 0.3622, -0.2041 0.46 0.3622, -0.2023 0.4638 0.3622, -0.2014 0.4681 0.3622, -0.2013 0.4705 0.3622, -0.2019 0.4756 0.3622, -0.2033 0.4792 0.3622, -0.2056 0.4824 0.3622, -0.2069 0.4836 0.3622, -0.2209 0.4886 0.3622, -0.2108 0.4863 0.3622, -0.2145 0.4877 0.3622, -0.2152 0.4879 0.3622, -0.2315 0.4886 0.3622, -0.2211 0.4843 0.3622, -0.2267 0.4843 0.3622, -0.2267 0.4557 0.3622, -0.2213 0.4557 0.3622, -0.2103 0.4596 0.3622, -0.211 0.459 0.3622, -0.2134 0.4574 0.3622, -0.2166 0.4562 0.3622, -0.2063 0.4704 0.3622, -0.2065 0.468 0.3622, -0.2072 0.4646 0.3622, -0.2084 0.4619 0.3622, -0.2104 0.4808 0.3622, -0.2094 0.4798 0.3622, -0.2079 0.4777 0.3622, -0.2069 0.4751 0.3622, -0.2163 0.4838 0.3622, -0.2131 0.4826 0.3622
            ]
        }
        coordIndex [
            0,1,2,-1,2,1,3,-1,4,0,5,-1,5,0,2,-1,6,4,7,-1,7,4,5,-1,8,6,9,-1,9,6,7,-1,10,8,11,-1,11,8,9,-1,1,10,3,-1,3,10,11,-1,6,8,4,-1,4,8,10,-1,4,10,0,-1,0,10,1,-1,12,13,14,-1,14,13,15,-1,15,16,14,-1,14,16,17,-1,14,17,18,-1,18,17,19,-1,18,19,20,-1,21,20,22,-1,22,20,19,-1,21,22,23,-1,21,23,24,-1,24,23,25,-1,24,25,26,-1,26,25,27,-1,26,27,28,-1,28,27,29,-1,28,29,30,-1,30,29,31,-1,30,31,32,-1,32,31,33,-1,32,33,34,-1,34,33,35,-1,34,35,36,-1,36,35,37,-1,36,37,38,-1,38,37,39,-1,38,39,40,-1,40,39,41,-1,40,41,42,-1,42,41,43,-1,42,43,44,-1,44,43,45,-1,44,45,46,-1,46,45,47,-1,46,47,48,-1,48,47,49,-1,48,49,50,-1,50,49,51,-1,50,51,52,-1,52,51,53,-1,52,53,54,-1,54,53,55,-1,54,55,56,-1,56,55,57,-1,56,57,58,-1,58,57,59,-1,58,59,60,-1,60,59,61,-1,60,61,62,-1,62,61,63,-1,62,63,64,-1,65,64,66,-1,66,64,63,-1,67,68,69,-1,65,66,70,-1,65,70,71,-1,71,70,72,-1,71,72,69,-1,69,72,73,-1,69,73,67,-1,68,67,74,-1,68,74,75,-1,74,76,75,-1,75,76,77,-1,75,77,78,-1,78,77,79,-1,78,79,80,-1,80,79,81,-1,80,81,82,-1,82,81,83,-1,82,83,84,-1,84,83,85,-1,84,85,86,-1,85,87,86,-1,86,87,88,-1,86,88,89,-1,89,88,90,-1,89,90,91,-1,92,93,94,-1,91,90,95,-1,91,95,96,-1,96,95,97,-1,96,97,94,-1,94,97,98,-1,94,98,92,-1,13,12,99,-1,93,92,100,-1,93,100,101,-1,101,100,102,-1,101,102,103,-1,103,102,104,-1,103,104,99,-1,99,104,105,-1,99,105,13,-1,62,64,65,-1,52,80,50,-1,50,80,82,-1,50,82,48,-1,48,82,84,-1,48,84,46,-1,62,65,60,-1,60,65,71,-1,60,71,58,-1,58,71,69,-1,58,69,56,-1,56,69,68,-1,56,68,54,-1,54,68,75,-1,54,75,52,-1,52,75,78,-1,52,78,80,-1,91,44,89,-1,89,44,46,-1,89,46,86,-1,86,46,84,-1,20,21,18,-1,18,21,24,-1,18,24,14,-1,14,24,26,-1,14,26,12,-1,12,26,28,-1,12,28,99,-1,99,28,30,-1,99,30,103,-1,103,30,32,-1,103,32,101,-1,101,32,34,-1,101,34,93,-1,93,34,36,-1,93,36,94,-1,94,36,38,-1,94,38,96,-1,96,38,40,-1,96,40,91,-1,91,40,42,-1,91,42,44,-1,106,107,108,-1,108,107,109,-1,110,111,112,-1,112,111,106,-1,112,106,108,-1,113,111,114,-1,114,111,110,-1,113,114,115,-1,115,114,116,-1,115,116,117,-1,118,115,119,-1,119,115,117,-1,120,121,122,-1,122,121,118,-1,122,118,119,-1,123,121,124,-1,124,121,120,-1,123,124,125,-1,125,124,126,-1,125,126,127,-1,128,125,129,-1,129,125,127,-1,130,131,132,-1,132,131,128,-1,132,128,129,-1,133,131,134,-1,134,131,130,-1,133,134,107,-1,107,134,135,-1,107,135,109,-1,133,107,106,-1,106,111,133,-1,133,111,113,-1,133,113,131,-1,125,128,123,-1,123,128,131,-1,123,131,121,-1,121,131,113,-1,121,113,118,-1,118,113,115,-1,136,137,138,-1,138,137,139,-1,138,139,140,-1,140,139,141,-1,140,141,142,-1,142,141,143,-1,142,143,144,-1,144,143,145,-1,144,145,146,-1,146,145,147,-1,146,147,148,-1,148,147,149,-1,148,149,150,-1,150,149,151,-1,150,151,152,-1,152,151,153,-1,152,153,154,-1,154,153,155,-1,154,155,156,-1,156,155,157,-1,156,157,158,-1,158,157,159,-1,158,159,160,-1,160,159,161,-1,160,161,162,-1,162,161,163,-1,162,163,164,-1,164,163,165,-1,164,165,166,-1,166,165,167,-1,166,167,168,-1,168,167,169,-1,168,169,170,-1,170,169,136,-1,170,136,138,-1,144,146,171,-1,171,146,172,-1,173,138,140,-1,144,171,174,-1,144,174,142,-1,142,174,175,-1,142,175,140,-1,140,175,176,-1,140,176,173,-1,138,173,177,-1,138,177,170,-1,170,177,178,-1,170,178,168,-1,168,178,179,-1,168,179,166,-1,166,179,180,-1,166,180,164,-1,164,180,181,-1,164,181,162,-1,162,181,182,-1,162,182,160,-1,160,182,183,-1,160,183,158,-1,158,183,184,-1,158,184,156,-1,185,150,152,-1,156,184,186,-1,156,186,154,-1,154,186,187,-1,154,187,152,-1,152,187,188,-1,152,188,185,-1,148,150,189,-1,189,150,185,-1,146,148,172,-1,172,148,189,-1,151,149,190,-1,190,149,191,-1,149,147,191,-1,191,147,192,-1,147,145,192,-1,192,145,193,-1,137,194,195,-1,137,195,139,-1,139,195,196,-1,139,196,141,-1,141,196,197,-1,141,197,143,-1,143,197,193,-1,143,193,145,-1,165,198,199,-1,165,199,167,-1,167,199,200,-1,167,200,169,-1,169,200,201,-1,169,201,136,-1,136,201,194,-1,136,194,137,-1,157,202,203,-1,157,203,159,-1,159,203,204,-1,159,204,161,-1,161,204,205,-1,161,205,163,-1,163,205,198,-1,163,198,165,-1,151,190,206,-1,151,206,153,-1,153,206,207,-1,153,207,155,-1,155,207,202,-1,155,202,157,-1,
        ]
    }
}
Shape{
    appearance Appearance {
        material  Material 	{
            diffuseColor 0.25098039215686274 0.25098039215686274 0.25098039215686274
            specularColor 0.12549019607843137 0.12549019607843137 0.12549019607843137
            ambientIntensity 0.251
            transparency 0.0
            shininess 0.5
        }
    }
    geometry IndexedFaceSet {
        ccw TRUE
        solid FALSE
        coord DEF co Coordinate {
            point [
                -0.2267 0.4843 0.3622, -0.2267 0.4557 0.3622, -0.2211 0.4843 0.3622, -0.2213 0.4557 0.3622, -0.2166 0.4562 0.3622, -0.2134 0.4574 0.3622, -0.211 0.459 0.3622, -0.2103 0.4596 0.3622, -0.2084 0.4619 0.3622, -0.2072 0.4646 0.3622, -0.2065 0.468 0.3622, -0.2063 0.4704 0.3622, -0.2069 0.4751 0.3622, -0.2079 0.4777 0.3622, -0.2094 0.4798 0.3622, -0.2104 0.4808 0.3622, -0.2163 0.4838 0.3622, -0.2131 0.4826 0.3622
            ]
        }
        coordIndex [
            0,1,2,-1,2,1,3,-1,2,3,4,-1,4,5,2,-1,2,5,6,-1,2,6,7,-1,7,8,2,-1,2,8,9,-1,2,9,10,-1,10,11,2,-1,2,11,12,-1,2,12,13,-1,13,14,2,-1,2,14,15,-1,2,15,16,-1,16,15,17,-1,
        ]
    }
}
Shape{
    appearance Appearance {
        material  Material 	{
            diffuseColor 1.0 1.0 1.0
            specularColor 0.5019607843137255 0.5019607843137255 0.5019607843137255
            ambientIntensity 1.0
            transparency 0.0
            shininess 0.5
        }
    }
    geometry IndexedFaceSet {
        ccw TRUE
        solid FALSE
        coord DEF co Coordinate {
            point [
                -0.1889 0.4658 0.3661, -0.1904 0.4616 0.3661, -0.1764 0.4658 0.3661, -0.175 0.4616 0.3661, -0.1833 0.4812 0.3661, -0.1851 0.4886 0.3661, -0.1992 0.4515 0.3661, -0.194 0.4515 0.3661, -0.183 0.4823 0.3661, -0.1827 0.4838 0.3661, -0.18 0.4886 0.3661, -0.1826 0.4838 0.3661, -0.1823 0.4822 0.3661, -0.182 0.4812 0.3661, -0.1659 0.4515 0.3661, -0.1712 0.4515 0.3661, -0.18 0.4886 0.3622, -0.1659 0.4515 0.3622, -0.1851 0.4886 0.3622, -0.1992 0.4515 0.3622, -0.1886 0.4795 0.3622, -0.194 0.4515 0.3622, -0.1904 0.4616 0.3622, -0.175 0.4616 0.3622, -0.1886 0.4616 0.3622, -0.1712 0.4515 0.3622, -0.1889 0.4658 0.3622, -0.1764 0.4658 0.3622, -0.182 0.4812 0.3622, -0.1826 0.4838 0.3622, -0.1823 0.4822 0.3622, -0.1827 0.4838 0.3622, -0.1833 0.4812 0.3622, -0.183 0.4823 0.3622
            ]
        }
        coordIndex [
            0,1,2,-1,2,1,3,-1,4,5,0,-1,0,5,6,-1,0,6,1,-1,1,6,7,-1,4,8,5,-1,5,8,9,-1,5,9,10,-1,10,9,11,-1,10,11,12,-1,12,13,10,-1,10,13,2,-1,10,2,14,-1,14,2,3,-1,14,3,15,-1,10,14,16,-1,16,14,17,-1,5,10,18,-1,18,10,16,-1,19,6,20,-1,20,6,5,-1,20,5,18,-1,7,6,21,-1,21,6,19,-1,1,7,22,-1,22,7,21,-1,23,3,24,-1,24,3,1,-1,24,1,22,-1,15,3,25,-1,25,3,23,-1,14,15,17,-1,17,15,25,-1,0,2,26,-1,26,2,27,-1,2,13,27,-1,27,13,28,-1,11,29,30,-1,11,30,12,-1,12,30,28,-1,12,28,13,-1,11,9,29,-1,29,9,31,-1,4,32,33,-1,4,33,8,-1,8,33,31,-1,8,31,9,-1,4,0,32,-1,32,0,26,-1,
        ]
    }
}
Shape{
    appearance Appearance {
        material  Material 	{
            diffuseColor 0.25098039215686274 0.25098039215686274 0.25098039215686274
            specularColor 0.12549019607843137 0.12549019607843137 0.12549019607843137
            ambientIntensity 0.251
            transparency 0.0
            shininess 0.5
        }
    }
    geometry IndexedFaceSet {
        ccw TRUE
        solid FALSE
        coord DEF co Coordinate {
            point [
                -0.1826 0.4838 0.3622, -0.1827 0.4838 0.3622, -0.1823 0.4822 0.3622, -0.183 0.4823 0.3622, -0.182 0.4812 0.3622, -0.1833 0.4812 0.3622, -0.1764 0.4658 0.3622, -0.1889 0.4658 0.3622
            ]
        }
        coordIndex [
            0,1,2,-1,2,1,3,-1,2,3,4,-1,4,3,5,-1,4,5,6,-1,6,5,7,-1,
        ]
    }
}
Shape{
    appearance Appearance {
        material  Material 	{
            diffuseColor 1.0 1.0 1.0
            specularColor 0.5019607843137255 0.5019607843137255 0.5019607843137255
            ambientIntensity 1.0
            transparency 0.0
            shininess 0.5
        }
    }
    geometry IndexedFaceSet {
        ccw TRUE
        solid FALSE
        coord DEF co Coordinate {
            point [
                -0.2947 0.3969 0.3661, -0.2947 0.3927 0.3661, -0.2947 0.3969 0.3622, -0.2947 0.3927 0.3622, -0.3099 0.3969 0.3661, -0.3099 0.3969 0.3622, -0.3099 0.4094 0.3661, -0.3099 0.4094 0.3622, -0.2966 0.4094 0.3661, -0.2966 0.4094 0.3622, -0.2966 0.4136 0.3661, -0.2966 0.4136 0.3622, -0.3099 0.4136 0.3661, -0.3099 0.4136 0.3622, -0.3099 0.4255 0.3622, -0.3099 0.4255 0.3661, -0.3099 0.4248 0.3622, -0.2956 0.4255 0.3661, -0.2956 0.4255 0.3622, -0.2956 0.4297 0.3661, -0.2956 0.4297 0.3622, -0.3147 0.4297 0.3661, -0.3147 0.4297 0.3622, -0.3147 0.3927 0.3622, -0.3147 0.3927 0.3661, -0.3147 0.4248 0.3622, -0.2736 0.3927 0.3661, -0.269 0.3927 0.3661, -0.2736 0.3968 0.3661, -0.269 0.4097 0.3661, -0.2736 0.4095 0.3661, -0.2838 0.4039 0.3661, -0.2827 0.4045 0.3661, -0.2738 0.3968 0.3661, -0.2762 0.3975 0.3661, -0.2745 0.3957 0.3661, -0.2775 0.3966 0.3661, -0.2798 0.4051 0.3661, -0.2736 0.406 0.3661, -0.2736 0.4034 0.3661, -0.2737 0.4031 0.3661, -0.274 0.401 0.3661, -0.2746 0.3994 0.3661, -0.2756 0.398 0.3661, -0.2738 0.4115 0.3661, -0.2695 0.4136 0.3661, -0.2743 0.4132 0.3661, -0.2702 0.4156 0.3661, -0.2748 0.4142 0.3661, -0.2712 0.4171 0.3661, -0.2755 0.4149 0.3661, -0.2877 0.4173 0.3661, -0.2877 0.4128 0.3661, -0.2868 0.4178 0.3661, -0.2845 0.4148 0.3661, -0.2833 0.4192 0.3661, -0.2816 0.4157 0.3661, -0.2786 0.4198 0.3661, -0.279 0.416 0.3661, -0.2785 0.4198 0.3661, -0.2774 0.4158 0.3661, -0.2753 0.4194 0.3661, -0.2763 0.4154 0.3661, -0.2735 0.4187 0.3661, -0.272 0.4178 0.3661, -0.2846 0.3975 0.3661, -0.288 0.3941 0.3661, -0.2842 0.3971 0.3661, -0.2864 0.3931 0.3661, -0.2833 0.3964 0.3661, -0.2847 0.3924 0.3661, -0.2822 0.396 0.3661, -0.2819 0.3921 0.3661, -0.2807 0.3959 0.3661, -0.2795 0.3923 0.3661, -0.2789 0.3961 0.3661, -0.2776 0.393 0.3661, -0.276 0.3941 0.3661, -0.2855 0.4009 0.3661, -0.2903 0.4003 0.3661, -0.2856 0.4001 0.3661, -0.2903 0.3998 0.3661, -0.2854 0.3991 0.3661, -0.29 0.3976 0.3661, -0.2851 0.3982 0.3661, -0.2894 0.396 0.3661, -0.2885 0.3946 0.3661, -0.2815 0.4084 0.3661, -0.285 0.4075 0.3661, -0.2843 0.4035 0.3661, -0.287 0.4065 0.3661, -0.2849 0.4028 0.3661, -0.2884 0.4053 0.3661, -0.2853 0.4019 0.3661, -0.2893 0.404 0.3661, -0.29 0.4023 0.3661, -0.2786 0.4198 0.3622, -0.2833 0.4192 0.3622, -0.2868 0.4178 0.3622, -0.2877 0.4173 0.3622, -0.2877 0.4128 0.3622, -0.2845 0.4148 0.3622, -0.2816 0.4157 0.3622, -0.279 0.416 0.3622, -0.2774 0.4158 0.3622, -0.2763 0.4154 0.3622, -0.2755 0.4149 0.3622, -0.2748 0.4142 0.3622, -0.2743 0.4132 0.3622, -0.2738 0.4115 0.3622, -0.2736 0.4095 0.3622, -0.2815 0.4084 0.3622, -0.285 0.4075 0.3622, -0.287 0.4065 0.3622, -0.2884 0.4053 0.3622, -0.2893 0.404 0.3622, -0.29 0.4023 0.3622, -0.2903 0.4003 0.3622, -0.2903 0.3998 0.3622, -0.29 0.3976 0.3622, -0.2894 0.396 0.3622, -0.2885 0.3946 0.3622, -0.288 0.3941 0.3622, -0.2819 0.3921 0.3622, -0.2846 0.3924 0.3622, -0.2847 0.3924 0.3622, -0.2864 0.3931 0.3622, -0.2795 0.3923 0.3622, -0.2794 0.3924 0.3622, -0.2776 0.393 0.3622, -0.276 0.3941 0.3622, -0.2745 0.3957 0.3622, -0.2738 0.3968 0.3622, -0.2736 0.3968 0.3622, -0.2736 0.3927 0.3622, -0.269 0.3927 0.3622, -0.269 0.4097 0.3622, -0.2695 0.4136 0.3622, -0.2702 0.4156 0.3622, -0.2712 0.4171 0.3622, -0.272 0.4178 0.3622, -0.2735 0.4187 0.3622, -0.2753 0.4194 0.3622, -0.2785 0.4198 0.3622, -0.2843 0.4035 0.3622, -0.2838 0.4039 0.3622, -0.2827 0.4045 0.3622, -0.2798 0.4051 0.3622, -0.2856 0.4001 0.3622, -0.2855 0.4009 0.3622, -0.2853 0.4019 0.3622, -0.2849 0.4028 0.3622, -0.2842 0.3971 0.3622, -0.2846 0.3975 0.3622, -0.2851 0.3982 0.3622, -0.2854 0.3991 0.3622, -0.2807 0.3959 0.3622, -0.2822 0.396 0.3622, -0.2833 0.3964 0.3622, -0.2756 0.398 0.3622, -0.2762 0.3975 0.3622, -0.2775 0.3966 0.3622, -0.2789 0.3961 0.3622, -0.2736 0.4034 0.3622, -0.2737 0.4031 0.3622, -0.274 0.401 0.3622, -0.2746 0.3994 0.3622, -0.2736 0.406 0.3622
            ]
        }
        coordIndex [
            0,1,2,-1,2,1,3,-1,4,0,5,-1,5,0,2,-1,6,4,7,-1,7,4,5,-1,8,6,9,-1,9,6,7,-1,10,8,11,-1,11,8,9,-1,12,10,13,-1,13,10,11,-1,14,15,16,-1,16,15,12,-1,16,12,13,-1,17,15,18,-1,18,15,14,-1,19,17,20,-1,20,17,18,-1,21,19,22,-1,22,19,20,-1,23,24,25,-1,25,24,21,-1,25,21,22,-1,1,24,3,-1,3,24,23,-1,24,1,0,-1,0,4,24,-1,24,4,6,-1,24,6,21,-1,17,19,15,-1,15,19,21,-1,15,21,12,-1,12,21,6,-1,12,6,10,-1,10,6,8,-1,26,27,28,-1,28,27,29,-1,30,31,32,-1,33,34,35,-1,35,34,36,-1,37,38,29,-1,29,38,39,-1,39,40,29,-1,29,40,41,-1,29,41,28,-1,28,41,42,-1,28,42,33,-1,33,42,43,-1,33,43,34,-1,32,37,30,-1,30,37,29,-1,30,29,44,-1,44,29,45,-1,44,45,46,-1,46,45,47,-1,46,47,48,-1,48,47,49,-1,48,49,50,-1,51,52,53,-1,53,52,54,-1,53,54,55,-1,55,54,56,-1,55,56,57,-1,57,56,58,-1,57,58,59,-1,59,58,60,-1,59,60,61,-1,61,60,62,-1,61,62,63,-1,63,62,50,-1,63,50,64,-1,64,50,49,-1,65,66,67,-1,67,66,68,-1,67,68,69,-1,69,68,70,-1,69,70,71,-1,71,70,72,-1,71,72,73,-1,73,72,74,-1,73,74,75,-1,75,74,76,-1,75,76,36,-1,36,76,77,-1,36,77,35,-1,78,79,80,-1,80,79,81,-1,80,81,82,-1,82,81,83,-1,82,83,84,-1,84,83,85,-1,84,85,65,-1,65,85,86,-1,65,86,66,-1,30,87,31,-1,31,87,88,-1,31,88,89,-1,89,88,90,-1,89,90,91,-1,91,90,92,-1,91,92,93,-1,93,92,94,-1,93,94,78,-1,78,94,95,-1,78,95,79,-1,57,96,97,-1,57,97,55,-1,55,97,98,-1,55,98,53,-1,53,98,99,-1,53,99,51,-1,52,51,100,-1,100,51,99,-1,52,100,101,-1,52,101,54,-1,54,101,102,-1,54,102,56,-1,56,102,103,-1,56,103,58,-1,58,103,104,-1,58,104,60,-1,60,104,105,-1,60,105,62,-1,62,105,106,-1,62,106,50,-1,50,106,107,-1,50,107,48,-1,48,107,108,-1,48,108,46,-1,46,108,109,-1,46,109,44,-1,44,109,110,-1,44,110,30,-1,87,30,111,-1,111,30,110,-1,87,111,112,-1,87,112,88,-1,88,112,113,-1,88,113,90,-1,90,113,114,-1,90,114,92,-1,92,114,115,-1,92,115,94,-1,94,115,116,-1,94,116,95,-1,95,116,117,-1,95,117,79,-1,79,117,118,-1,79,118,81,-1,81,118,119,-1,81,119,83,-1,83,119,120,-1,83,120,85,-1,85,120,121,-1,85,121,86,-1,86,121,122,-1,86,122,66,-1,123,72,124,-1,124,72,70,-1,124,70,125,-1,125,70,68,-1,125,68,126,-1,126,68,66,-1,126,66,122,-1,72,123,127,-1,72,127,74,-1,74,127,128,-1,74,128,76,-1,128,129,76,-1,76,129,130,-1,76,130,77,-1,77,130,131,-1,77,131,35,-1,35,131,132,-1,35,132,33,-1,28,33,133,-1,133,33,132,-1,26,28,134,-1,134,28,133,-1,27,26,135,-1,135,26,134,-1,29,27,136,-1,136,27,135,-1,29,136,137,-1,29,137,45,-1,45,137,138,-1,45,138,47,-1,47,138,139,-1,47,139,49,-1,49,139,140,-1,49,140,64,-1,64,140,141,-1,64,141,63,-1,63,141,142,-1,63,142,61,-1,61,142,143,-1,61,143,59,-1,59,143,96,-1,59,96,57,-1,89,144,145,-1,89,145,31,-1,31,145,146,-1,31,146,32,-1,32,146,147,-1,32,147,37,-1,80,148,149,-1,80,149,78,-1,78,149,150,-1,78,150,93,-1,93,150,151,-1,93,151,91,-1,91,151,144,-1,91,144,89,-1,67,152,153,-1,67,153,65,-1,65,153,154,-1,65,154,84,-1,84,154,155,-1,84,155,82,-1,82,155,148,-1,82,148,80,-1,73,156,157,-1,73,157,71,-1,71,157,158,-1,71,158,69,-1,69,158,152,-1,69,152,67,-1,43,159,160,-1,43,160,34,-1,34,160,161,-1,34,161,36,-1,36,161,162,-1,36,162,75,-1,75,162,156,-1,75,156,73,-1,39,163,164,-1,39,164,40,-1,40,164,165,-1,40,165,41,-1,41,165,166,-1,41,166,42,-1,42,166,159,-1,42,159,43,-1,39,38,163,-1,163,38,167,-1,38,37,167,-1,167,37,147,-1,
        ]
    }
}
Shape{
    appearance Appearance {
        material  Material 	{
            diffuseColor 0.25098039215686274 0.25098039215686274 0.25098039215686274
            specularColor 0.12549019607843137 0.12549019607843137 0.12549019607843137
            ambientIntensity 0.251
            transparency 0.0
            shininess 0.5
        }
    }
    geometry IndexedFaceSet {
        ccw TRUE
        solid FALSE
        coord DEF co Coordinate {
            point [
                -0.2737 0.4031 0.3622, -0.2736 0.4034 0.3622, -0.2843 0.4035 0.3622, -0.2736 0.406 0.3622, -0.2798 0.4051 0.3622, -0.2827 0.4045 0.3622, -0.2838 0.4039 0.3622, -0.274 0.401 0.3622, -0.2849 0.4028 0.3622, -0.2746 0.3994 0.3622, -0.2846 0.3975 0.3622, -0.2842 0.3971 0.3622, -0.2762 0.3975 0.3622, -0.2851 0.3982 0.3622, -0.2775 0.3966 0.3622, -0.2789 0.3961 0.3622, -0.2807 0.3959 0.3622, -0.2853 0.4019 0.3622, -0.2855 0.4009 0.3622, -0.2756 0.398 0.3622, -0.2856 0.4001 0.3622, -0.2854 0.3991 0.3622, -0.2833 0.3964 0.3622, -0.2822 0.396 0.3622
            ]
        }
        coordIndex [
            0,1,2,-1,1,3,4,-1,4,5,1,-1,1,5,6,-1,1,6,2,-1,0,2,7,-1,7,2,8,-1,7,8,9,-1,10,11,12,-1,10,12,13,-1,14,12,15,-1,15,12,16,-1,8,17,9,-1,9,17,18,-1,9,18,19,-1,19,18,20,-1,19,20,12,-1,12,20,21,-1,12,21,13,-1,11,22,12,-1,12,22,23,-1,12,23,16,-1,
        ]
    }
}
Shape{
    appearance Appearance {
        material  Material 	{
            diffuseColor 1.0 1.0 1.0
            specularColor 0.5019607843137255 0.5019607843137255 0.5019607843137255
            ambientIntensity 1.0
            transparency 0.0
            shininess 0.5
        }
    }
    geometry IndexedFaceSet {
        ccw TRUE
        solid FALSE
        coord DEF co Coordinate {
            point [
                -0.2627 0.3984 0.3622, -0.2627 0.3984 0.3661, -0.261 0.3974 0.3661, -0.2551 0.3958 0.3661, -0.2551 0.3958 0.3622, -0.2581 0.3962 0.3622, -0.2581 0.3962 0.3661, -0.2606 0.3972 0.3622, -0.261 0.3974 0.3622, -0.2627 0.3936 0.3661, -0.2627 0.3936 0.3622, -0.2606 0.3929 0.3622, -0.2595 0.3925 0.3661, -0.2555 0.3921 0.3622, -0.2555 0.3921 0.3661, -0.2585 0.3924 0.3622, -0.2595 0.3925 0.3622, -0.2529 0.3924 0.3622, -0.2513 0.3926 0.3661, -0.2513 0.3926 0.3622, -0.2489 0.3935 0.3622, -0.2489 0.3935 0.3661, -0.2478 0.3942 0.3622, -0.2478 0.3942 0.3661, -0.2465 0.3953 0.3622, -0.2465 0.3953 0.3661, -0.2456 0.3966 0.3622, -0.2456 0.3966 0.3661, -0.2451 0.398 0.3622, -0.2451 0.398 0.3661, -0.2448 0.3999 0.3622, -0.2448 0.3999 0.3661, -0.245 0.4016 0.3622, -0.245 0.4016 0.3661, -0.2455 0.403 0.3622, -0.2455 0.403 0.3661, -0.2464 0.4043 0.3622, -0.2464 0.4043 0.3661, -0.2475 0.4052 0.3622, -0.2475 0.4052 0.3661, -0.2506 0.407 0.3622, -0.2506 0.407 0.3661, -0.2524 0.4077 0.3622, -0.2524 0.4077 0.3661, -0.2552 0.4089 0.3622, -0.2552 0.4089 0.3661, -0.2569 0.41 0.3622, -0.2569 0.41 0.3661, -0.2573 0.4105 0.3622, -0.2573 0.4105 0.3661, -0.2577 0.4111 0.3622, -0.2577 0.4111 0.3661, -0.2579 0.4118 0.3622, -0.2579 0.4118 0.3661, -0.2579 0.4124 0.3622, -0.2579 0.4124 0.3661, -0.2578 0.4132 0.3622, -0.2578 0.4132 0.3661, -0.2576 0.4138 0.3622, -0.2576 0.4138 0.3661, -0.2572 0.4144 0.3622, -0.2572 0.4144 0.3661, -0.2565 0.415 0.3622, -0.2565 0.415 0.3661, -0.2554 0.4156 0.3622, -0.2554 0.4156 0.3661, -0.2542 0.4159 0.3622, -0.2542 0.4159 0.3661, -0.2528 0.416 0.3622, -0.2528 0.416 0.3661, -0.2496 0.4156 0.3622, -0.2496 0.4156 0.3661, -0.247 0.4146 0.3622, -0.247 0.4146 0.3661, -0.2461 0.4141 0.3622, -0.2461 0.4141 0.3661, -0.2461 0.4186 0.3661, -0.2461 0.4186 0.3622, -0.2491 0.4195 0.3622, -0.2491 0.4195 0.3661, -0.2524 0.4198 0.3622, -0.2524 0.4198 0.3661, -0.2561 0.4193 0.3622, -0.2561 0.4193 0.3661, -0.2586 0.4184 0.3622, -0.2586 0.4184 0.3661, -0.2597 0.4177 0.3622, -0.2597 0.4177 0.3661, -0.2606 0.4169 0.3622, -0.2612 0.4163 0.3661, -0.2612 0.4163 0.3622, -0.262 0.415 0.3622, -0.262 0.415 0.3661, -0.2625 0.4135 0.3622, -0.2625 0.4135 0.3661, -0.2627 0.412 0.3622, -0.2627 0.412 0.3661, -0.2625 0.4102 0.3622, -0.2625 0.4102 0.3661, -0.262 0.4088 0.3622, -0.262 0.4088 0.3661, -0.2614 0.4078 0.3622, -0.2614 0.4078 0.3661, -0.2557 0.4043 0.3622, -0.2557 0.4043 0.3661, -0.2584 0.4056 0.3661, -0.2606 0.407 0.3622, -0.2606 0.407 0.3661, -0.2606 0.407 0.3622, -0.2584 0.4056 0.3622, -0.2526 0.403 0.3622, -0.2526 0.403 0.3661, -0.2508 0.4019 0.3622, -0.2508 0.4019 0.3661, -0.2502 0.4013 0.3622, -0.2502 0.4013 0.3661, -0.2499 0.4007 0.3622, -0.2499 0.4007 0.3661, -0.2496 0.4 0.3622, -0.2496 0.4 0.3661, -0.2496 0.3994 0.3622, -0.2496 0.3994 0.3661, -0.2497 0.3985 0.3622, -0.2497 0.3985 0.3661, -0.2499 0.3979 0.3622, -0.2499 0.3979 0.3661, -0.2503 0.3973 0.3622, -0.2503 0.3973 0.3661, -0.2509 0.3968 0.3622, -0.2509 0.3968 0.3661, -0.2513 0.3966 0.3622, -0.2513 0.3966 0.3661, -0.2525 0.3961 0.3622, -0.2525 0.3961 0.3661, -0.2549 0.3958 0.3622, -0.2549 0.3958 0.3661, -0.2218 0.4192 0.3661, -0.217 0.4192 0.3661, -0.2218 0.4192 0.3622, -0.217 0.4192 0.3622, -0.229 0.3992 0.3661, -0.229 0.3992 0.3622, -0.2294 0.398 0.3622, -0.2294 0.398 0.3661, -0.2296 0.3971 0.3622, -0.2296 0.3971 0.3661, -0.2297 0.3971 0.3661, -0.2297 0.3971 0.3622, -0.2303 0.3993 0.3661, -0.2303 0.3993 0.3622, -0.2372 0.4192 0.3661, -0.235 0.4127 0.3622, -0.2372 0.4192 0.3622, -0.2424 0.4192 0.3661, -0.2424 0.4192 0.3622, -0.232 0.3927 0.3661, -0.235 0.4002 0.3622, -0.232 0.3927 0.3622, -0.2341 0.3879 0.3622, -0.2341 0.3879 0.3661, -0.2322 0.3924 0.3622, -0.235 0.3863 0.3622, -0.2351 0.3861 0.3661, -0.2351 0.3861 0.3622, -0.236 0.3851 0.3622, -0.236 0.3851 0.3661, -0.2369 0.3846 0.3622, -0.2369 0.3846 0.3661, -0.2379 0.3843 0.3622, -0.2379 0.3843 0.3661, -0.2388 0.3842 0.3622, -0.2388 0.3842 0.3661, -0.2405 0.3844 0.3622, -0.2405 0.3844 0.3661, -0.2415 0.3847 0.3622, -0.2415 0.3847 0.3661, -0.2415 0.3806 0.3661, -0.2415 0.3806 0.3622, -0.2395 0.3802 0.3622, -0.2395 0.3802 0.3661, -0.2385 0.3802 0.3622, -0.2385 0.3802 0.3661, -0.2365 0.3805 0.3622, -0.2365 0.3805 0.3661, -0.235 0.3811 0.3622, -0.2346 0.3812 0.3661, -0.2346 0.3812 0.3622, -0.2331 0.3823 0.3622, -0.2331 0.3823 0.3661, -0.2311 0.3846 0.3622, -0.2311 0.3846 0.3661, -0.229 0.3887 0.3622, -0.229 0.3887 0.3661, -0.2276 0.3924 0.3622, -0.1921 0.3969 0.3661, -0.1921 0.3927 0.3661, -0.1921 0.3969 0.3622, -0.1921 0.3927 0.3622, -0.2072 0.3969 0.3661, -0.2003 0.3969 0.3622, -0.2072 0.3969 0.3622, -0.2072 0.4094 0.3661, -0.2072 0.4094 0.3622, -0.194 0.4094 0.3661, -0.2003 0.4094 0.3622, -0.194 0.4094 0.3622, -0.194 0.4136 0.3661, -0.194 0.4136 0.3622, -0.2072 0.4136 0.3622, -0.2072 0.4136 0.3661, -0.2003 0.4136 0.3622, -0.2072 0.4255 0.3622, -0.2072 0.4255 0.3661, -0.2072 0.4248 0.3622, -0.1929 0.4255 0.3622, -0.1929 0.4255 0.3661, -0.2003 0.4255 0.3622, -0.1929 0.4297 0.3661, -0.1929 0.4297 0.3622, -0.212 0.4297 0.3622, -0.212 0.4297 0.3661, -0.2003 0.4297 0.3622, -0.212 0.3927 0.3622, -0.212 0.3927 0.3661, -0.212 0.4248 0.3622, -0.2003 0.3927 0.3622, -0.162 0.4031 0.3661, -0.1639 0.4008 0.3661, -0.1605 0.3979 0.3661, -0.1646 0.4002 0.3661, -0.1643 0.3951 0.3661, -0.167 0.3985 0.3661, -0.1685 0.3935 0.3661, -0.1702 0.3974 0.3661, -0.1749 0.3927 0.3661, -0.1749 0.3969 0.3661, -0.1851 0.3927 0.3661, -0.1803 0.3969 0.3661, -0.1851 0.4297 0.3661, -0.1803 0.4255 0.3661, -0.1745 0.4297 0.3661, -0.1747 0.4255 0.3661, -0.1688 0.4291 0.3661, -0.1699 0.425 0.3661, -0.1644 0.4275 0.3661, -0.1667 0.4238 0.3661, -0.1605 0.4248 0.3661, -0.164 0.422 0.3661, -0.1592 0.4236 0.3661, -0.163 0.421 0.3661, -0.1569 0.4204 0.3661, -0.1615 0.4189 0.3661, -0.1555 0.4168 0.3661, -0.1605 0.4162 0.3661, -0.1549 0.4117 0.3661, -0.1599 0.4116 0.3661, -0.155 0.4093 0.3661, -0.16 0.4092 0.3661, -0.1559 0.405 0.3661, -0.1608 0.4058 0.3661, -0.1577 0.4012 0.3661, -0.1749 0.3927 0.3622, -0.1851 0.3927 0.3622, -0.1685 0.3935 0.3622, -0.1643 0.3951 0.3622, -0.1605 0.3979 0.3622, -0.1577 0.4012 0.3622, -0.1559 0.405 0.3622, -0.155 0.4093 0.3622, -0.1549 0.4117 0.3622, -0.1605 0.4248 0.3622, -0.1604 0.4248 0.3622, -0.1592 0.4236 0.3622, -0.1569 0.4204 0.3622, -0.1555 0.4168 0.3622, -0.1644 0.4275 0.3622, -0.1688 0.4291 0.3622, -0.1745 0.4297 0.3622, -0.1851 0.4297 0.3622, -0.1851 0.4248 0.3622, -0.1747 0.4255 0.3622, -0.1803 0.4255 0.3622, -0.1803 0.3969 0.3622, -0.1749 0.3969 0.3622, -0.1639 0.4008 0.3622, -0.1646 0.4002 0.3622, -0.167 0.3985 0.3622, -0.1702 0.3974 0.3622, -0.1599 0.4116 0.3622, -0.16 0.4092 0.3622, -0.1608 0.4058 0.3622, -0.162 0.4031 0.3622, -0.164 0.422 0.3622, -0.163 0.421 0.3622, -0.1615 0.4189 0.3622, -0.1605 0.4162 0.3622, -0.1699 0.425 0.3622, -0.1667 0.4238 0.3622
            ]
        }
        coordIndex [
            0,1,2,-1,3,4,5,-1,3,5,6,-1,6,5,7,-1,6,7,2,-1,2,7,8,-1,2,8,0,-1,9,1,10,-1,10,1,0,-1,10,11,9,-1,9,11,12,-1,13,14,15,-1,15,14,12,-1,15,12,16,-1,16,12,11,-1,13,17,14,-1,14,17,18,-1,17,19,18,-1,18,19,20,-1,18,20,21,-1,21,20,22,-1,21,22,23,-1,23,22,24,-1,23,24,25,-1,25,24,26,-1,25,26,27,-1,27,26,28,-1,27,28,29,-1,29,28,30,-1,29,30,31,-1,31,30,32,-1,31,32,33,-1,33,32,34,-1,33,34,35,-1,35,34,36,-1,35,36,37,-1,37,36,38,-1,37,38,39,-1,39,38,40,-1,39,40,41,-1,41,40,42,-1,41,42,43,-1,43,42,44,-1,43,44,45,-1,45,44,46,-1,45,46,47,-1,47,46,48,-1,47,48,49,-1,49,48,50,-1,49,50,51,-1,51,50,52,-1,51,52,53,-1,53,52,54,-1,53,54,55,-1,55,54,56,-1,55,56,57,-1,57,56,58,-1,57,58,59,-1,59,58,60,-1,59,60,61,-1,61,60,62,-1,61,62,63,-1,63,62,64,-1,63,64,65,-1,65,64,66,-1,65,66,67,-1,67,66,68,-1,67,68,69,-1,69,68,70,-1,69,70,71,-1,71,70,72,-1,71,72,73,-1,73,72,74,-1,73,74,75,-1,76,75,77,-1,77,75,74,-1,76,77,78,-1,76,78,79,-1,79,78,80,-1,79,80,81,-1,81,80,82,-1,81,82,83,-1,83,82,84,-1,83,84,85,-1,85,84,86,-1,85,86,87,-1,86,88,87,-1,87,88,89,-1,88,90,89,-1,89,90,91,-1,89,91,92,-1,92,91,93,-1,92,93,94,-1,94,93,95,-1,94,95,96,-1,96,95,97,-1,96,97,98,-1,98,97,99,-1,98,99,100,-1,100,99,101,-1,100,101,102,-1,103,104,105,-1,102,101,106,-1,102,106,107,-1,107,106,108,-1,107,108,105,-1,105,108,109,-1,105,109,103,-1,104,103,110,-1,104,110,111,-1,111,110,112,-1,111,112,113,-1,113,112,114,-1,113,114,115,-1,115,114,116,-1,115,116,117,-1,117,116,118,-1,117,118,119,-1,119,118,120,-1,119,120,121,-1,121,120,122,-1,121,122,123,-1,123,122,124,-1,123,124,125,-1,125,124,126,-1,125,126,127,-1,127,126,128,-1,127,128,129,-1,129,128,130,-1,129,130,131,-1,131,130,132,-1,131,132,133,-1,133,132,134,-1,133,134,135,-1,135,134,4,-1,135,4,3,-1,59,61,87,-1,87,61,85,-1,85,61,63,-1,85,63,83,-1,125,25,27,-1,111,43,104,-1,104,43,45,-1,125,27,123,-1,123,27,29,-1,123,29,121,-1,121,29,31,-1,121,31,119,-1,119,31,33,-1,119,33,117,-1,117,33,35,-1,117,35,115,-1,115,35,37,-1,115,37,113,-1,113,37,39,-1,113,39,111,-1,111,39,41,-1,111,41,43,-1,25,125,23,-1,23,125,127,-1,23,127,21,-1,14,3,12,-1,12,3,6,-1,12,6,9,-1,9,6,2,-1,9,2,1,-1,63,65,83,-1,83,65,67,-1,83,67,81,-1,81,67,69,-1,81,69,79,-1,79,69,71,-1,79,71,76,-1,76,71,73,-1,76,73,75,-1,127,129,21,-1,21,129,131,-1,21,131,18,-1,18,131,133,-1,18,133,14,-1,14,133,135,-1,14,135,3,-1,87,89,59,-1,59,89,92,-1,59,92,57,-1,57,92,94,-1,57,94,55,-1,55,94,96,-1,55,96,53,-1,53,96,98,-1,53,98,51,-1,51,98,100,-1,51,100,49,-1,49,100,102,-1,49,102,47,-1,47,102,107,-1,47,107,45,-1,45,107,105,-1,45,105,104,-1,136,137,138,-1,138,137,139,-1,140,136,141,-1,141,136,138,-1,140,141,142,-1,140,142,143,-1,143,142,144,-1,143,144,145,-1,146,145,147,-1,147,145,144,-1,148,146,149,-1,149,146,147,-1,148,149,150,-1,150,149,151,-1,150,151,152,-1,153,150,154,-1,154,150,152,-1,153,154,155,-1,155,154,156,-1,155,156,157,-1,158,159,160,-1,160,159,155,-1,160,155,157,-1,158,161,159,-1,159,161,162,-1,161,163,162,-1,162,163,164,-1,162,164,165,-1,165,164,166,-1,165,166,167,-1,167,166,168,-1,167,168,169,-1,169,168,170,-1,169,170,171,-1,171,170,172,-1,171,172,173,-1,173,172,174,-1,173,174,175,-1,176,175,177,-1,177,175,174,-1,176,177,178,-1,176,178,179,-1,179,178,180,-1,179,180,181,-1,181,180,182,-1,181,182,183,-1,183,182,184,-1,183,184,185,-1,184,186,185,-1,185,186,187,-1,185,187,188,-1,188,187,189,-1,188,189,190,-1,190,189,191,-1,190,191,192,-1,139,137,193,-1,193,137,192,-1,193,192,191,-1,143,145,192,-1,137,136,192,-1,192,136,140,-1,192,140,143,-1,150,153,148,-1,148,153,155,-1,148,155,146,-1,145,146,192,-1,192,146,155,-1,192,155,190,-1,155,159,190,-1,190,159,162,-1,190,162,188,-1,188,162,165,-1,188,165,185,-1,185,165,167,-1,185,167,183,-1,183,167,169,-1,183,169,181,-1,181,169,171,-1,181,171,179,-1,179,171,173,-1,179,173,176,-1,176,173,175,-1,194,195,196,-1,196,195,197,-1,194,196,198,-1,198,196,199,-1,198,199,200,-1,201,198,202,-1,202,198,200,-1,201,202,203,-1,203,202,204,-1,203,204,205,-1,206,203,207,-1,207,203,205,-1,208,209,210,-1,210,209,206,-1,210,206,207,-1,211,212,213,-1,213,212,209,-1,213,209,208,-1,214,215,216,-1,216,215,212,-1,216,212,211,-1,217,215,218,-1,218,215,214,-1,219,220,221,-1,221,220,217,-1,221,217,218,-1,222,223,224,-1,224,223,220,-1,224,220,219,-1,223,222,195,-1,195,222,225,-1,195,225,197,-1,223,195,194,-1,194,198,223,-1,223,198,201,-1,223,201,220,-1,215,217,212,-1,212,217,220,-1,212,220,209,-1,209,220,201,-1,209,201,206,-1,206,201,203,-1,226,227,228,-1,228,227,229,-1,228,229,230,-1,230,229,231,-1,230,231,232,-1,232,231,233,-1,232,233,234,-1,234,233,235,-1,234,235,236,-1,236,235,237,-1,236,237,238,-1,238,237,239,-1,238,239,240,-1,240,239,241,-1,240,241,242,-1,242,241,243,-1,242,243,244,-1,244,243,245,-1,244,245,246,-1,246,245,247,-1,246,247,248,-1,248,247,249,-1,248,249,250,-1,250,249,251,-1,250,251,252,-1,252,251,253,-1,252,253,254,-1,254,253,255,-1,254,255,256,-1,256,255,257,-1,256,257,258,-1,258,257,259,-1,258,259,260,-1,260,259,226,-1,260,226,228,-1,234,236,261,-1,261,236,262,-1,234,261,263,-1,234,263,232,-1,232,263,264,-1,232,264,230,-1,230,264,265,-1,230,265,228,-1,228,265,266,-1,228,266,260,-1,260,266,267,-1,260,267,258,-1,258,267,268,-1,258,268,256,-1,256,268,269,-1,256,269,254,-1,270,246,271,-1,271,246,248,-1,271,248,272,-1,272,248,250,-1,272,250,273,-1,273,250,252,-1,273,252,274,-1,274,252,254,-1,274,254,269,-1,246,270,275,-1,246,275,244,-1,244,275,276,-1,244,276,242,-1,242,276,277,-1,242,277,240,-1,238,240,278,-1,278,240,277,-1,262,236,279,-1,279,236,238,-1,279,238,278,-1,241,239,280,-1,280,239,281,-1,239,237,281,-1,281,237,282,-1,237,235,282,-1,282,235,283,-1,227,284,285,-1,227,285,229,-1,229,285,286,-1,229,286,231,-1,231,286,287,-1,231,287,233,-1,233,287,283,-1,233,283,235,-1,255,288,289,-1,255,289,257,-1,257,289,290,-1,257,290,259,-1,259,290,291,-1,259,291,226,-1,226,291,284,-1,226,284,227,-1,247,292,293,-1,247,293,249,-1,249,293,294,-1,249,294,251,-1,251,294,295,-1,251,295,253,-1,253,295,288,-1,253,288,255,-1,241,280,296,-1,241,296,243,-1,243,296,297,-1,243,297,245,-1,245,297,292,-1,245,292,247,-1,
        ]
    }
}
Shape{
    appearance Appearance {
        material  Material 	{
            diffuseColor 0.25098039215686274 0.25098039215686274 0.25098039215686274
            specularColor 0.12549019607843137 0.12549019607843137 0.12549019607843137
            ambientIntensity 0.251
            transparency 0.0
            shininess 0.5
        }
    }
    geometry IndexedFaceSet {
        ccw TRUE
        solid FALSE
        coord DEF co Coordinate {
            point [
                -0.1803 0.4255 0.3622, -0.1803 0.3969 0.3622, -0.1747 0.4255 0.3622, -0.1749 0.3969 0.3622, -0.1702 0.3974 0.3622, -0.167 0.3985 0.3622, -0.1646 0.4002 0.3622, -0.1639 0.4008 0.3622, -0.162 0.4031 0.3622, -0.1608 0.4058 0.3622, -0.16 0.4092 0.3622, -0.1599 0.4116 0.3622, -0.1605 0.4162 0.3622, -0.1615 0.4189 0.3622, -0.163 0.421 0.3622, -0.164 0.422 0.3622, -0.1699 0.425 0.3622, -0.1667 0.4238 0.3622
            ]
        }
        coordIndex [
            0,1,2,-1,2,1,3,-1,2,3,4,-1,4,5,2,-1,2,5,6,-1,2,6,7,-1,7,8,2,-1,2,8,9,-1,2,9,10,-1,10,11,2,-1,2,11,12,-1,2,12,13,-1,13,14,2,-1,2,14,15,-1,2,15,16,-1,16,15,17,-1,
        ]
    }
}
Shape{
    appearance Appearance {
        material  Material 	{
            diffuseColor 1.0 1.0 1.0
            specularColor 0.5019607843137255 0.5019607843137255 0.5019607843137255
            ambientIntensity 1.0
            transparency 0.0
            shininess 0.5
        }
    }
    geometry IndexedFaceSet {
        ccw TRUE
        solid FALSE
        coord DEF co Coordinate {
            point [
                -0.1425 0.407 0.3661, -0.144 0.4028 0.3661, -0.13 0.407 0.3661, -0.1285 0.4028 0.3661, -0.1369 0.4224 0.3661, -0.1387 0.4297 0.3661, -0.1528 0.3927 0.3661, -0.1475 0.3927 0.3661, -0.1366 0.4235 0.3661, -0.1363 0.425 0.3661, -0.1336 0.4297 0.3661, -0.1362 0.425 0.3661, -0.1359 0.4234 0.3661, -0.1356 0.4224 0.3661, -0.1195 0.3927 0.3661, -0.1248 0.3927 0.3661, -0.1195 0.3927 0.3622, -0.1317 0.4248 0.3622, -0.1336 0.4297 0.3622, -0.1387 0.4297 0.3622, -0.1528 0.3927 0.3622, -0.1406 0.4248 0.3622, -0.1475 0.3927 0.3622, -0.144 0.4028 0.3622, -0.1285 0.4028 0.3622, -0.1248 0.3927 0.3622, -0.1425 0.407 0.3622, -0.13 0.407 0.3622, -0.1356 0.4224 0.3622, -0.1362 0.425 0.3622, -0.1359 0.4234 0.3622, -0.1363 0.425 0.3622, -0.1369 0.4224 0.3622, -0.1366 0.4235 0.3622
            ]
        }
        coordIndex [
            0,1,2,-1,2,1,3,-1,4,5,0,-1,0,5,6,-1,0,6,1,-1,1,6,7,-1,4,8,5,-1,5,8,9,-1,5,9,10,-1,10,9,11,-1,10,11,12,-1,12,13,10,-1,10,13,2,-1,10,2,14,-1,14,2,3,-1,14,3,15,-1,14,16,10,-1,10,16,17,-1,10,17,18,-1,5,10,19,-1,19,10,18,-1,20,6,21,-1,21,6,5,-1,21,5,19,-1,7,6,22,-1,22,6,20,-1,1,7,23,-1,23,7,22,-1,3,1,24,-1,24,1,23,-1,15,3,25,-1,25,3,24,-1,14,15,16,-1,16,15,25,-1,0,2,26,-1,26,2,27,-1,2,13,27,-1,27,13,28,-1,11,29,30,-1,11,30,12,-1,12,30,28,-1,12,28,13,-1,11,9,29,-1,29,9,31,-1,4,32,33,-1,4,33,8,-1,8,33,31,-1,8,31,9,-1,4,0,32,-1,32,0,26,-1,
        ]
    }
}
Shape{
    appearance Appearance {
        material  Material 	{
            diffuseColor 0.25098039215686274 0.25098039215686274 0.25098039215686274
            specularColor 0.12549019607843137 0.12549019607843137 0.12549019607843137
            ambientIntensity 0.251
            transparency 0.0
            shininess 0.5
        }
    }
    geometry IndexedFaceSet {
        ccw TRUE
        solid FALSE
        coord DEF co Coordinate {
            point [
                -0.1362 0.425 0.3622, -0.1363 0.425 0.3622, -0.1359 0.4234 0.3622, -0.1366 0.4235 0.3622, -0.1356 0.4224 0.3622, -0.1369 0.4224 0.3622, -0.13 0.407 0.3622, -0.1425 0.407 0.3622
            ]
        }
        coordIndex [
            0,1,2,-1,2,1,3,-1,2,3,4,-1,4,3,5,-1,4,5,6,-1,6,5,7,-1,
        ]
    }
}
Shape{
    appearance Appearance {
        material  Material 	{
            diffuseColor 1.0 1.0 1.0
            specularColor 0.5019607843137255 0.5019607843137255 0.5019607843137255
            ambientIntensity 1.0
            transparency 0.0
            shininess 0.5
        }
    }
    geometry IndexedFaceSet {
        ccw TRUE
        solid FALSE
        coord DEF co Coordinate {
            point [
                -0.4784 0.3874 0.3661, -0.4745 0.3826 0.3661, -0.4807 0.4107 0.3661, -0.4296 0.4041 0.3661, -0.4516 0.4104 0.3661, -0.4495 0.409 0.3661, -0.3927 0.4237 0.3661, -0.4009 0.4376 0.3661, -0.4362 0.4192 0.3661, -0.3614 0.4292 0.3661, -0.362 0.4241 0.3661, -0.3463 0.4197 0.3661, -0.4631 0.3936 0.3661, -0.461 0.3921 0.3661, -0.4693 0.3787 0.3661, -0.4586 0.3912 0.3661, -0.4865 0.4143 0.3661, -0.4855 0.3945 0.3661, -0.481 0.3931 0.3661, -0.384 0.4497 0.3661, -0.3819 0.4497 0.3661, -0.3711 0.464 0.3661, -0.3769 0.4491 0.3661, -0.3696 0.4635 0.3661, -0.3723 0.4474 0.3661, -0.3618 0.4595 0.3661, -0.3547 0.4534 0.3661, -0.4582 0.4584 0.3661, -0.4562 0.4574 0.3661, -0.4644 0.4766 0.3661, -0.4525 0.4653 0.3661, -0.459 0.4829 0.3661, -0.4466 0.4725 0.3661, -0.4528 0.4882 0.3661, -0.4393 0.4779 0.3661, -0.4464 0.4922 0.3661, -0.4464 0.4264 0.3661, -0.4528 0.4279 0.3661, -0.4562 0.4115 0.3661, -0.456 0.4281 0.3661, -0.4585 0.4113 0.3661, -0.4623 0.4274 0.3661, -0.4608 0.4105 0.3661, -0.4681 0.4251 0.3661, -0.4629 0.4091 0.3661, -0.4735 0.4214 0.3661, -0.4646 0.4072 0.3661, -0.4778 0.4164 0.3661, -0.4658 0.4049 0.3661, -0.4665 0.4024 0.3661, -0.3497 0.4114 0.3661, -0.3638 0.4194 0.3661, -0.3548 0.4044 0.3661, -0.3853 0.4848 0.3661, -0.3948 0.4719 0.3661, -0.3767 0.4749 0.3661, -0.3891 0.4646 0.3661, -0.3853 0.4559 0.3661, -0.4912 0.4191 0.3661, -0.5021 0.4057 0.3661, -0.4949 0.3994 0.3661, -0.4958 0.4414 0.3661, -0.5131 0.4375 0.3661, -0.4966 0.435 0.3661, -0.5132 0.4345 0.3661, -0.4963 0.431 0.3661, -0.5121 0.4252 0.3661, -0.4944 0.4245 0.3661, -0.5086 0.4153 0.3661, -0.503 0.4068 0.3661, -0.3682 0.4445 0.3661, -0.3652 0.4411 0.3661, -0.3493 0.4459 0.3661, -0.3627 0.4365 0.3661, -0.3462 0.4378 0.3661, -0.3615 0.4315 0.3661, -0.345 0.4295 0.3661, -0.345 0.4284 0.3661, -0.3667 0.4153 0.3661, -0.3671 0.4149 0.3661, -0.3622 0.3982 0.3661, -0.371 0.4117 0.3661, -0.3703 0.3943 0.3661, -0.3756 0.4095 0.3661, -0.3788 0.3926 0.3661, -0.3803 0.4086 0.3661, -0.3943 0.3926 0.3661, -0.3922 0.4086 0.3661, -0.3956 0.3928 0.3661, -0.4343 0.4969 0.3661, -0.4307 0.4814 0.3661, -0.4212 0.4985 0.3661, -0.4209 0.4827 0.3661, -0.4103 0.4974 0.3661, -0.4124 0.4817 0.3661, -0.3971 0.4927 0.3661, -0.4041 0.4786 0.3661, -0.3966 0.4735 0.3661, -0.4641 0.4606 0.3661, -0.4674 0.477 0.3661, -0.4702 0.4613 0.3661, -0.4705 0.4772 0.3661, -0.4729 0.4612 0.3661, -0.4798 0.4761 0.3661, -0.4794 0.4597 0.3661, -0.4896 0.4726 0.3661, -0.4853 0.4566 0.3661, -0.4985 0.4667 0.3661, -0.4899 0.4525 0.3661, -0.5008 0.4645 0.3661, -0.4935 0.4472 0.3661, -0.5066 0.4572 0.3661, -0.511 0.4479 0.3661, -0.4648 0.3955 0.3661, -0.4659 0.3977 0.3661, -0.4665 0.4001 0.3661, -0.4541 0.4113 0.3661, -0.4408 0.4234 0.3661, -0.4478 0.4071 0.3661, -0.4466 0.4049 0.3661, -0.4296 0.4015 0.3661, -0.446 0.4025 0.3661, -0.4298 0.3988 0.3661, -0.446 0.4001 0.3661, -0.4313 0.3923 0.3661, -0.4467 0.3975 0.3661, -0.4344 0.3864 0.3661, -0.4479 0.3953 0.3661, -0.4385 0.3818 0.3661, -0.4496 0.3934 0.3661, -0.4437 0.3782 0.3661, -0.4517 0.392 0.3661, -0.4496 0.3759 0.3661, -0.454 0.3912 0.3661, -0.456 0.3752 0.3661, -0.4562 0.391 0.3661, -0.457 0.3752 0.3661, -0.4632 0.3762 0.3661, -0.3935 0.4089 0.3661, -0.3999 0.3954 0.3661, -0.3991 0.3946 0.3661, -0.3957 0.4087 0.3661, -0.3975 0.408 0.3661, -0.4019 0.4015 0.3661, -0.4019 0.4007 0.3661, -0.4017 0.3988 0.3661, -0.401 0.397 0.3661, -0.3927 0.4087 0.3661, -0.3974 0.3934 0.3661, -0.3938 0.4089 0.3661, -0.3992 0.4068 0.3661, -0.4005 0.4053 0.3661, -0.4015 0.4035 0.3661, -0.3493 0.4459 0.3622, -0.3462 0.4378 0.3622, -0.345 0.4295 0.3622, -0.3531 0.4512 0.3622, -0.3547 0.4534 0.3622, -0.3618 0.4595 0.3622, -0.3696 0.4635 0.3622, -0.3711 0.464 0.3622, -0.3767 0.4749 0.3622, -0.3853 0.4848 0.3622, -0.3914 0.4889 0.3622, -0.3971 0.4927 0.3622, -0.4103 0.4974 0.3622, -0.4212 0.4985 0.3622, -0.4528 0.4882 0.3622, -0.4518 0.4889 0.3622, -0.4464 0.4922 0.3622, -0.4343 0.4969 0.3622, -0.459 0.4829 0.3622, -0.4644 0.4766 0.3622, -0.4674 0.477 0.3622, -0.4705 0.4772 0.3622, -0.4798 0.4761 0.3622, -0.4896 0.4726 0.3622, -0.4985 0.4667 0.3622, -0.5008 0.4645 0.3622, -0.5095 0.4512 0.3622, -0.5066 0.4572 0.3622, -0.5008 0.4645 0.3622, -0.511 0.4479 0.3622, -0.5131 0.4375 0.3622, -0.5132 0.4345 0.3622, -0.5121 0.4252 0.3622, -0.512 0.4248 0.3622, -0.5086 0.4153 0.3622, -0.503 0.4068 0.3622, -0.5021 0.4057 0.3622, -0.5008 0.4046 0.3622, -0.4949 0.3994 0.3622, -0.4855 0.3945 0.3622, -0.481 0.3931 0.3622, -0.4807 0.3924 0.3622, -0.4784 0.3874 0.3622, -0.4745 0.3826 0.3622, -0.4693 0.3787 0.3622, -0.4669 0.3777 0.3622, -0.4632 0.3762 0.3622, -0.457 0.3752 0.3622, -0.456 0.3752 0.3622, -0.4296 0.4015 0.3622, -0.4496 0.3759 0.3622, -0.4451 0.3777 0.3622, -0.4437 0.3782 0.3622, -0.4385 0.3818 0.3622, -0.4344 0.3864 0.3622, -0.4313 0.3923 0.3622, -0.4313 0.3924 0.3622, -0.4298 0.3988 0.3622, -0.4296 0.4041 0.3622, -0.3927 0.4237 0.3622, -0.4009 0.4376 0.3622, -0.3934 0.4248 0.3622, -0.4255 0.4248 0.3622, -0.4362 0.4192 0.3622, -0.4408 0.4234 0.3622, -0.4434 0.4248 0.3622, -0.4464 0.4264 0.3622, -0.4528 0.4279 0.3622, -0.456 0.4281 0.3622, -0.4623 0.4274 0.3622, -0.4681 0.4251 0.3622, -0.4686 0.4248 0.3622, -0.4735 0.4214 0.3622, -0.4778 0.4164 0.3622, -0.4807 0.4107 0.3622, -0.4966 0.435 0.3622, -0.4865 0.4143 0.3622, -0.4912 0.4191 0.3622, -0.4944 0.4245 0.3622, -0.4944 0.4248 0.3622, -0.4963 0.431 0.3622, -0.4958 0.4414 0.3622, -0.4935 0.4472 0.3622, -0.4908 0.4512 0.3622, -0.4899 0.4525 0.3622, -0.4853 0.4566 0.3622, -0.4794 0.4597 0.3622, -0.4729 0.4612 0.3622, -0.4702 0.4613 0.3622, -0.4641 0.4606 0.3622, -0.4582 0.4584 0.3622, -0.4562 0.4574 0.3622, -0.4525 0.4653 0.3622, -0.4466 0.4725 0.3622, -0.4393 0.4779 0.3622, -0.4307 0.4814 0.3622, -0.4209 0.4827 0.3622, -0.384 0.4497 0.3622, -0.3843 0.4512 0.3622, -0.3853 0.4559 0.3622, -0.3891 0.4646 0.3622, -0.3948 0.4719 0.3622, -0.3966 0.4735 0.3622, -0.4041 0.4786 0.3622, -0.4124 0.4817 0.3622, -0.3819 0.4497 0.3622, -0.3769 0.4491 0.3622, -0.3723 0.4474 0.3622, -0.3682 0.4445 0.3622, -0.3652 0.4411 0.3622, -0.3627 0.4365 0.3622, -0.3615 0.4315 0.3622, -0.3614 0.4292 0.3622, -0.3619 0.4248 0.3622, -0.362 0.4241 0.3622, -0.3638 0.4194 0.3622, -0.3667 0.4153 0.3622, -0.3671 0.4149 0.3622, -0.371 0.4117 0.3622, -0.3756 0.4095 0.3622, -0.3803 0.4086 0.3622, -0.3922 0.4086 0.3622, -0.3927 0.4087 0.3622, -0.3935 0.4089 0.3622, -0.3938 0.4089 0.3622, -0.3957 0.4087 0.3622, -0.3975 0.408 0.3622, -0.3992 0.4068 0.3622, -0.4005 0.4053 0.3622, -0.4015 0.4035 0.3622, -0.4019 0.4015 0.3622, -0.4019 0.4007 0.3622, -0.4017 0.3988 0.3622, -0.401 0.397 0.3622, -0.3999 0.3954 0.3622, -0.3991 0.3946 0.3622, -0.3974 0.3934 0.3622, -0.3956 0.3928 0.3622, -0.3943 0.3926 0.3622, -0.3788 0.3926 0.3622, -0.3703 0.3943 0.3622, -0.3622 0.3982 0.3622, -0.3548 0.4044 0.3622, -0.3463 0.4197 0.3622, -0.3497 0.4114 0.3622, -0.3456 0.4248 0.3622, -0.345 0.4284 0.3622, -0.4562 0.4115 0.3622, -0.4541 0.4113 0.3622, -0.4516 0.4104 0.3622, -0.4495 0.409 0.3622, -0.4478 0.4071 0.3622, -0.4466 0.4049 0.3622, -0.446 0.4025 0.3622, -0.446 0.4001 0.3622, -0.4467 0.3975 0.3622, -0.4479 0.3953 0.3622, -0.4496 0.3934 0.3622, -0.4517 0.392 0.3622, -0.454 0.3912 0.3622, -0.4562 0.391 0.3622, -0.4586 0.3912 0.3622, -0.461 0.3921 0.3622, -0.4631 0.3936 0.3622, -0.4648 0.3955 0.3622, -0.4659 0.3977 0.3622, -0.4665 0.4001 0.3622, -0.4665 0.4024 0.3622, -0.4658 0.4049 0.3622, -0.4646 0.4072 0.3622, -0.4629 0.4091 0.3622, -0.4608 0.4105 0.3622, -0.4585 0.4113 0.3622
            ]
        }
        coordIndex [
            0,1,2,-1,3,4,5,-1,6,7,3,-1,3,7,8,-1,9,10,11,-1,12,1,13,-1,13,1,14,-1,13,14,15,-1,16,17,2,-1,2,17,18,-1,2,18,0,-1,19,20,21,-1,21,20,22,-1,21,22,23,-1,23,22,24,-1,23,24,25,-1,25,24,26,-1,27,28,29,-1,29,28,30,-1,29,30,31,-1,31,30,32,-1,31,32,33,-1,33,32,34,-1,33,34,35,-1,36,37,38,-1,38,37,39,-1,38,39,40,-1,40,39,41,-1,40,41,42,-1,42,41,43,-1,42,43,44,-1,44,43,45,-1,44,45,46,-1,46,45,47,-1,46,47,48,-1,48,47,2,-1,48,2,49,-1,11,10,50,-1,50,10,51,-1,50,51,52,-1,53,54,55,-1,55,54,56,-1,55,56,21,-1,21,56,57,-1,21,57,19,-1,58,59,16,-1,16,59,60,-1,16,60,17,-1,61,62,63,-1,63,62,64,-1,63,64,65,-1,65,64,66,-1,65,66,67,-1,67,66,68,-1,67,68,58,-1,58,68,69,-1,58,69,59,-1,24,70,26,-1,26,70,71,-1,26,71,72,-1,72,71,73,-1,72,73,74,-1,74,73,75,-1,74,75,76,-1,76,75,9,-1,76,9,77,-1,77,9,11,-1,51,78,52,-1,52,78,79,-1,52,79,80,-1,80,79,81,-1,80,81,82,-1,82,81,83,-1,82,83,84,-1,84,83,85,-1,84,85,86,-1,86,85,87,-1,86,87,88,-1,35,34,89,-1,89,34,90,-1,89,90,91,-1,91,90,92,-1,91,92,93,-1,93,92,94,-1,93,94,95,-1,95,94,96,-1,95,96,53,-1,53,96,97,-1,53,97,54,-1,27,29,98,-1,98,29,99,-1,98,99,100,-1,100,99,101,-1,100,101,102,-1,102,101,103,-1,102,103,104,-1,104,103,105,-1,104,105,106,-1,106,105,107,-1,106,107,108,-1,108,107,109,-1,108,109,110,-1,110,109,111,-1,110,111,61,-1,61,111,112,-1,61,112,62,-1,12,113,1,-1,1,113,114,-1,1,114,2,-1,2,114,115,-1,2,115,49,-1,4,3,116,-1,116,3,8,-1,116,8,38,-1,38,8,117,-1,38,117,36,-1,5,118,3,-1,3,118,119,-1,3,119,120,-1,120,119,121,-1,120,121,122,-1,122,121,123,-1,122,123,124,-1,124,123,125,-1,124,125,126,-1,126,125,127,-1,126,127,128,-1,128,127,129,-1,128,129,130,-1,130,129,131,-1,130,131,132,-1,132,131,133,-1,132,133,134,-1,134,133,135,-1,134,135,136,-1,136,135,15,-1,136,15,137,-1,137,15,14,-1,138,139,140,-1,141,142,143,-1,144,145,138,-1,138,145,146,-1,138,146,139,-1,87,147,88,-1,88,147,138,-1,88,138,148,-1,148,138,140,-1,144,138,143,-1,143,138,149,-1,143,149,141,-1,142,150,143,-1,143,150,151,-1,143,151,152,-1,153,74,154,-1,154,74,76,-1,154,76,155,-1,156,26,153,-1,153,26,72,-1,153,72,74,-1,156,157,26,-1,26,157,158,-1,26,158,25,-1,25,158,159,-1,25,159,23,-1,23,159,160,-1,23,160,21,-1,21,160,161,-1,21,161,55,-1,55,161,162,-1,55,162,53,-1,53,162,95,-1,95,162,163,-1,163,164,95,-1,95,164,165,-1,95,165,93,-1,93,165,166,-1,93,166,91,-1,167,33,168,-1,168,33,35,-1,168,35,169,-1,169,35,89,-1,169,89,170,-1,170,89,91,-1,170,91,166,-1,33,167,171,-1,33,171,31,-1,31,171,172,-1,31,172,29,-1,29,172,173,-1,29,173,99,-1,99,173,174,-1,99,174,101,-1,101,174,175,-1,101,175,103,-1,103,175,176,-1,103,176,105,-1,105,176,177,-1,105,177,107,-1,107,177,178,-1,107,178,109,-1,179,112,180,-1,180,112,111,-1,180,111,181,-1,181,111,109,-1,181,109,178,-1,179,182,112,-1,112,182,183,-1,112,183,62,-1,62,183,184,-1,62,184,64,-1,64,184,185,-1,64,185,66,-1,66,185,186,-1,66,186,68,-1,186,187,68,-1,68,187,188,-1,68,188,69,-1,69,188,189,-1,69,189,59,-1,59,189,190,-1,59,190,60,-1,190,191,60,-1,60,191,192,-1,60,192,17,-1,17,192,193,-1,17,193,18,-1,18,193,194,-1,18,194,0,-1,194,195,0,-1,0,195,196,-1,0,196,1,-1,1,196,197,-1,1,197,14,-1,14,197,198,-1,14,198,137,-1,198,199,137,-1,137,199,200,-1,137,200,136,-1,136,200,201,-1,136,201,134,-1,202,120,122,-1,134,201,203,-1,134,203,132,-1,132,203,204,-1,132,204,130,-1,204,205,130,-1,130,205,206,-1,130,206,128,-1,128,206,207,-1,128,207,126,-1,126,207,208,-1,126,208,124,-1,124,208,209,-1,124,209,122,-1,122,209,210,-1,122,210,202,-1,3,120,211,-1,211,120,202,-1,6,3,212,-1,212,3,211,-1,213,7,214,-1,214,7,6,-1,214,6,212,-1,7,213,8,-1,8,213,215,-1,8,215,216,-1,8,216,217,-1,8,217,117,-1,117,217,218,-1,117,218,36,-1,218,219,36,-1,36,219,220,-1,36,220,37,-1,37,220,221,-1,37,221,39,-1,39,221,222,-1,39,222,41,-1,41,222,223,-1,41,223,43,-1,43,223,224,-1,43,224,45,-1,224,225,45,-1,45,225,226,-1,45,226,47,-1,47,226,227,-1,47,227,2,-1,228,63,65,-1,2,227,229,-1,2,229,16,-1,16,229,230,-1,16,230,58,-1,58,230,231,-1,58,231,67,-1,67,231,232,-1,67,232,65,-1,65,232,233,-1,65,233,228,-1,63,228,234,-1,63,234,61,-1,61,234,235,-1,61,235,110,-1,110,235,236,-1,110,236,108,-1,236,237,108,-1,108,237,238,-1,108,238,106,-1,106,238,239,-1,106,239,104,-1,104,239,240,-1,104,240,102,-1,102,240,241,-1,102,241,100,-1,100,241,242,-1,100,242,98,-1,98,242,243,-1,98,243,27,-1,27,243,244,-1,27,244,28,-1,28,244,245,-1,28,245,30,-1,30,245,246,-1,30,246,32,-1,32,246,247,-1,32,247,34,-1,34,247,248,-1,34,248,90,-1,90,248,249,-1,90,249,92,-1,250,19,251,-1,251,19,57,-1,251,57,252,-1,252,57,56,-1,252,56,253,-1,253,56,54,-1,253,54,254,-1,254,54,97,-1,254,97,255,-1,255,97,96,-1,255,96,256,-1,256,96,94,-1,256,94,257,-1,257,94,92,-1,257,92,249,-1,20,19,258,-1,258,19,250,-1,20,258,259,-1,20,259,22,-1,22,259,260,-1,22,260,24,-1,24,260,261,-1,24,261,70,-1,70,261,262,-1,70,262,71,-1,71,262,263,-1,71,263,73,-1,73,263,264,-1,73,264,75,-1,75,264,265,-1,75,265,9,-1,265,266,9,-1,9,266,10,-1,266,267,10,-1,10,267,268,-1,10,268,51,-1,51,268,269,-1,51,269,78,-1,78,269,270,-1,78,270,79,-1,79,270,271,-1,79,271,81,-1,81,271,272,-1,81,272,83,-1,83,272,273,-1,83,273,85,-1,87,85,274,-1,274,85,273,-1,87,274,275,-1,87,275,147,-1,147,275,276,-1,147,276,138,-1,138,276,277,-1,138,277,149,-1,149,277,278,-1,149,278,141,-1,141,278,279,-1,141,279,142,-1,142,279,280,-1,142,280,150,-1,150,280,281,-1,150,281,151,-1,151,281,282,-1,151,282,152,-1,152,282,283,-1,152,283,143,-1,143,283,284,-1,143,284,144,-1,144,284,285,-1,144,285,145,-1,145,285,286,-1,145,286,146,-1,146,286,287,-1,146,287,139,-1,139,287,288,-1,139,288,140,-1,140,288,289,-1,140,289,148,-1,148,289,290,-1,148,290,88,-1,88,290,291,-1,88,291,86,-1,84,86,292,-1,292,86,291,-1,84,292,293,-1,84,293,82,-1,82,293,294,-1,82,294,80,-1,80,294,295,-1,80,295,52,-1,296,50,297,-1,297,50,52,-1,297,52,295,-1,298,77,296,-1,296,77,11,-1,296,11,50,-1,298,299,77,-1,77,299,155,-1,77,155,76,-1,38,300,301,-1,38,301,116,-1,116,301,302,-1,116,302,4,-1,4,302,303,-1,4,303,5,-1,5,303,304,-1,5,304,118,-1,118,304,305,-1,118,305,119,-1,119,305,306,-1,119,306,121,-1,121,306,307,-1,121,307,123,-1,123,307,308,-1,123,308,125,-1,125,308,309,-1,125,309,127,-1,127,309,310,-1,127,310,129,-1,129,310,311,-1,129,311,131,-1,131,311,312,-1,131,312,133,-1,133,312,313,-1,133,313,135,-1,135,313,314,-1,135,314,15,-1,15,314,315,-1,15,315,13,-1,13,315,316,-1,13,316,12,-1,12,316,317,-1,12,317,113,-1,113,317,318,-1,113,318,114,-1,114,318,319,-1,114,319,115,-1,115,319,320,-1,115,320,49,-1,49,320,321,-1,49,321,48,-1,48,321,322,-1,48,322,46,-1,46,322,323,-1,46,323,44,-1,44,323,324,-1,44,324,42,-1,42,324,325,-1,42,325,40,-1,40,325,300,-1,40,300,38,-1,
        ]
    }
}
Shape{
    appearance Appearance {
        material  Material 	{
            diffuseColor 0.25098039215686274 0.25098039215686274 0.25098039215686274
            specularColor 0.12549019607843137 0.12549019607843137 0.12549019607843137
            ambientIntensity 0.251
            transparency 0.0
            shininess 0.5
        }
    }
    geometry IndexedFaceSet {
        ccw TRUE
        solid FALSE
        coord DEF co Coordinate {
            point [
                -0.454 0.3912 0.3622, -0.4562 0.4115 0.3622, -0.4562 0.391 0.3622, -0.4585 0.4113 0.3622, -0.4665 0.4001 0.3622, -0.4665 0.4024 0.3622, -0.4608 0.4105 0.3622, -0.446 0.4025 0.3622, -0.4466 0.4049 0.3622, -0.4478 0.4071 0.3622, -0.4495 0.409 0.3622, -0.4516 0.4104 0.3622, -0.4541 0.4113 0.3622, -0.4629 0.4091 0.3622, -0.4646 0.4072 0.3622, -0.4658 0.4049 0.3622, -0.4659 0.3977 0.3622, -0.4648 0.3955 0.3622, -0.4631 0.3936 0.3622, -0.4517 0.392 0.3622, -0.4496 0.3934 0.3622, -0.446 0.4001 0.3622, -0.4479 0.3953 0.3622, -0.4467 0.3975 0.3622, -0.461 0.3921 0.3622, -0.4586 0.3912 0.3622
            ]
        }
        coordIndex [
            0,1,2,-1,2,1,3,-1,4,3,5,-1,5,3,6,-1,7,8,0,-1,0,8,9,-1,0,9,10,-1,10,11,0,-1,0,11,12,-1,0,12,1,-1,6,13,5,-1,5,13,14,-1,5,14,15,-1,4,16,3,-1,3,16,17,-1,3,17,18,-1,0,19,7,-1,7,19,20,-1,7,20,21,-1,21,20,22,-1,21,22,23,-1,18,24,3,-1,3,24,25,-1,3,25,2,-1,
        ]
    }
}